<?xml version="1.0" encoding="utf-8"?>
<!-- Generator: Adobe Illustrator 18.0.0, SVG Export Plug-In . SVG Version: 6.00 Build 0)  -->
<!DOCTYPE svg PUBLIC "-//W3C//DTD SVG 1.1//EN" "http://www.w3.org/Graphics/SVG/1.1/DTD/svg11.dtd">
<svg version="1.1" id="Ebene_1" xmlns="http://www.w3.org/2000/svg" xmlns:xlink="http://www.w3.org/1999/xlink" x="0px" y="0px"
	 viewBox="0 0 50 50" style="enable-background:new 0 0 50 50;" xml:space="preserve">
<style type="text/css">
	.st0{fill:#FFFFFF;}
	.st1{fill:none;}
	.st2{fill:none;stroke:#1C1C1C;stroke-width:1.5;stroke-linecap:round;stroke-linejoin:round;stroke-miterlimit:10;}
</style>
<polygon class="st0" points="25,32.6 25,32.6 25,32.6 "/>
<g>
	<circle class="st1" cx="25" cy="25" r="25"/>
</g>
<path class="st2" d="M19.8,41.2L9.9,28.9c-1.7-2.1-2.6-4.7-2.6-7.6c0-6.8,5.6-12.4,12.5-12.4c6.9,0,12.5,5.5,12.5,12.4
	c0,2.9-1,5.5-2.6,7.6L19.8,41.2z M22.2,38.2l2.5,3.1l9.9-12.4c1.7-2.1,2.6-4.7,2.6-7.6c0-6.8-5.6-12.4-12.5-12.4
	c-0.8,0-1.7,0.1-2.5,0.2 M27.5,37.8l2.8,3.5l9.9-12.4c1.7-2.1,2.6-4.7,2.6-7.6c0-6.8-5.6-12.4-12.5-12.4c-1,0-1.9,0.1-2.8,0.3"/>
</svg>
