<?xml version="1.0" encoding="utf-8"?>
<!-- Generator: Adobe Illustrator 18.0.0, SVG Export Plug-In . SVG Version: 6.00 Build 0)  -->
<!DOCTYPE svg PUBLIC "-//W3C//DTD SVG 1.1//EN" "http://www.w3.org/Graphics/SVG/1.1/DTD/svg11.dtd">
<svg version="1.1" id="Ebene_1" xmlns="http://www.w3.org/2000/svg" xmlns:xlink="http://www.w3.org/1999/xlink" x="0px" y="0px"
	 viewBox="0 0 50 50" style="enable-background:new 0 0 50 50;" xml:space="preserve">
<style type="text/css">
	.st0{fill:none;stroke:#1E1E1E;stroke-linecap:round;stroke-linejoin:round;stroke-miterlimit:10;}
	.st1{fill:none;stroke:#1D1D1D;stroke-linecap:round;stroke-linejoin:round;stroke-miterlimit:10;}
	.st2{fill:none;stroke:#222222;stroke-linecap:round;stroke-linejoin:round;stroke-miterlimit:10;}
	.st3{fill:none;stroke:#222222;stroke-miterlimit:10;}
</style>
<g>
	<path class="st0" d="M19.5,42.2L8.8,29C7.1,26.8,6,23.9,6,20.9c0-7.3,6-13.2,13.4-13.2s13.4,5.9,13.4,13.2c0,3-1,5.9-2.8,8.1
		L19.5,42.2z M27.6,38.5l3,3.7l10.5-13.2C42.9,26.9,44,24,44,21c0-7.3-6-13.2-13.4-13.2c-1,0-1.9,0.1-3,0.3 M22.1,8
		c0.8-0.1,1.6-0.2,2.4-0.2c7.4,0,13.4,5.8,13.4,13.2c0,3-1.1,5.9-2.8,8.1L24.6,42.3L22,39"/>
</g>
</svg>
