<?xml version="1.0" encoding="utf-8"?>
<!-- Generator: Adobe Illustrator 18.0.0, SVG Export Plug-In . SVG Version: 6.00 Build 0)  -->
<!DOCTYPE svg PUBLIC "-//W3C//DTD SVG 1.1//EN" "http://www.w3.org/Graphics/SVG/1.1/DTD/svg11.dtd">
<svg version="1.1" id="Ebene_1" xmlns="http://www.w3.org/2000/svg" xmlns:xlink="http://www.w3.org/1999/xlink" x="0px" y="0px"
	 viewBox="0 0 50 50" style="enable-background:new 0 0 50 50;" xml:space="preserve">
<style type="text/css">
	.st0{fill:none;}
	.st1{fill:none;stroke:#1D1D1D;stroke-linecap:round;stroke-linejoin:round;stroke-miterlimit:10;}
	.st2{fill:none;stroke:#1D1D1D;stroke-width:0.9217;stroke-linecap:round;stroke-linejoin:round;stroke-miterlimit:10;}
	.st3{fill:none;stroke:#222222;stroke-linecap:round;stroke-linejoin:round;stroke-miterlimit:10;}
	.st4{fill:none;stroke:#222222;stroke-miterlimit:10;}
</style>
<g>
	<circle class="st0" cx="25" cy="25" r="25"/>
</g>
<path class="st1" d="M38.1,17.8l-0.3-1.4c-0.2-0.8-1.1-1.4-2-1.4h-9.3c-0.9,0-2.2-0.5-2.9-1.2l-1-1c-0.7-0.7-2-1.2-2.9-1.2h-5.4
	c-0.9,0-1.8,0.8-1.9,1.7l-0.5,4.5 M39.1,17.8H10.9c-1.5,0-1.6,0.8-1.5,1.7l1.4,15.4c0.1,0.9,0.3,1.7,1.8,1.7h24.9
	c1.6,0,1.8-0.8,1.8-1.7l1.4-15.4C40.7,18.6,40.7,17.8,39.1,17.8z M25,22.3v6.5 M21.8,25.6h6.4 M25,34.3l-4.2-5.5
	c-0.7-0.9-1.1-2.1-1.1-3.3c0-3,2.4-5.4,5.4-5.4c3,0,5.4,2.4,5.4,5.4c0,1.3-0.4,2.4-1.1,3.3L25,34.3z"/>
</svg>
