<?xml version="1.0" encoding="utf-8"?>
<!-- Generator: Adobe Illustrator 18.0.0, SVG Export Plug-In . SVG Version: 6.00 Build 0)  -->
<!DOCTYPE svg PUBLIC "-//W3C//DTD SVG 1.1//EN" "http://www.w3.org/Graphics/SVG/1.1/DTD/svg11.dtd">
<svg version="1.1" id="Ebene_1" xmlns="http://www.w3.org/2000/svg" xmlns:xlink="http://www.w3.org/1999/xlink" x="0px" y="0px"
	 viewBox="0 0 50 50" style="enable-background:new 0 0 50 50;" xml:space="preserve">
<style type="text/css">
	.st0{fill:#FFFFFF;}
	.st1{fill:none;}
	.st2{fill:none;stroke:#1C1C1C;stroke-width:1.5;stroke-linecap:round;stroke-linejoin:round;stroke-miterlimit:10;}
	.st3{fill:#1C1C1C;}
</style>
<path class="st0" d="M25,32.6L25,32.6L25,32.6z"/>
<g>
	<circle class="st1" cx="25" cy="25" r="25"/>
</g>
<g>
	<path class="st2" d="M39,13.7L22.7,30 M36.4,11.1L20.1,27.4 M41.7,16.4L20.5,37.6l-4.1,0.7c-0.1-1.2-0.6-2.3-1.5-3.2
		c-0.8-0.8-1.9-1.3-3.1-1.5l0.7-4.1L33.7,8.3L41.7,16.4z"/>
</g>
<polyline class="st2" points="20.5,37.6 10.8,39.3 12.5,29.5 "/>
<polygon class="st3" points="10.9,38.5 11.8,33.6 14,34.4 15.4,35.7 16.2,37.4 16.4,38.3 11.8,39.1 "/>
</svg>
