<?xml version="1.0" encoding="utf-8"?>
<!-- Generator: Adobe Illustrator 18.0.0, SVG Export Plug-In . SVG Version: 6.00 Build 0)  -->
<!DOCTYPE svg PUBLIC "-//W3C//DTD SVG 1.1//EN" "http://www.w3.org/Graphics/SVG/1.1/DTD/svg11.dtd">
<svg version="1.1" id="Default_g_x2B__icon" xmlns="http://www.w3.org/2000/svg" xmlns:xlink="http://www.w3.org/1999/xlink"
	 x="0px" y="0px" viewBox="0 0 50 50" style="enable-background:new 0 0 50 50;" xml:space="preserve">
<style type="text/css">
	.st0{fill:#FFFFFF;}
</style>
<g>
	<path class="st0" d="M22.2,29.3c-0.4,0-0.6,0-1,0c-0.4,0-2.8,0.1-4.7,0.7c-1,0.4-3.8,1.4-3.8,4.5c0,3.1,3.1,5.3,7.8,5.3
		c4.3,0,6.5-2,6.5-4.7C27,32.9,25.6,31.7,22.2,29.3z"/>
	<path class="st0" d="M47.4,0H2.6C1.2,0,0,1.2,0,2.6v44.7C0,48.8,1.2,50,2.6,50h44.7c1.5,0,2.6-1.2,2.6-2.6V2.6
		C50,1.2,48.8,0,47.4,0z M18.2,41.7c-6.4,0-9.4-3-9.4-6.3c0-1.6,0.8-3.8,3.4-5.3c2.8-1.7,6.5-1.9,8.5-2c-0.6-0.8-1.3-1.6-1.3-3
		c0-0.7,0.2-1.2,0.4-1.7c-0.5,0-1,0.1-1.4,0.1c-4.7,0-7.4-3.5-7.4-6.9c0-2,0.6-4.4,2.5-6c2.5-2.1,5.8-2.3,8.2-2.3H31l-2.9,1.8h-2.6
		c1,0.8,3,2.4,3,5.8c0,3.2-1.9,4.8-3.7,6.2c-0.6,0.6-1.2,1.2-1.2,2.1c0,1,0.7,1.5,1.2,1.9l1.6,1.2c2,1.6,3.7,3.1,3.7,6.1
		C30,37.5,25.8,41.7,18.2,41.7z M42,25.3h-4.4v4.4h-2.2v-4.4H31v-2.1h4.4v-4.4h2.2v4.4H42V25.3z"/>
	<path class="st0" d="M24.6,18c0-3.1-1.9-8-5.6-8c-1.2,0-2.4,0.5-3.1,1.3c-0.8,0.9-1,2.2-1,3.3c0,2.9,1.7,7.8,5.5,7.8
		c1.1,0,2.3-0.6,3-1.3C24.5,20,24.6,18.7,24.6,18z"/>
</g>
</svg>
