<?xml version="1.0" encoding="utf-8"?>
<!-- Generator: Adobe Illustrator 18.0.0, SVG Export Plug-In . SVG Version: 6.00 Build 0)  -->
<!DOCTYPE svg PUBLIC "-//W3C//DTD SVG 1.1//EN" "http://www.w3.org/Graphics/SVG/1.1/DTD/svg11.dtd">
<svg version="1.1" id="Ebene_1" xmlns="http://www.w3.org/2000/svg" xmlns:xlink="http://www.w3.org/1999/xlink" x="0px" y="0px"
	 viewBox="0 0 50 50" style="enable-background:new 0 0 50 50;" xml:space="preserve">
<style type="text/css">
	.st0{fill:none;stroke:#FFFFFF;stroke-width:1.8;stroke-linecap:round;stroke-linejoin:round;stroke-miterlimit:10;}
</style>
<path class="st0" d="M44.8,20.2l-0.5-2.1C44,16.9,42.6,16,41.2,16h-14c-1.4,0-3.4-0.8-4.4-1.8l-1.5-1.5c-1-1-2.9-1.8-4.4-1.8H8.7
	c-1.4,0-2.7,1.2-2.8,2.6l-0.7,6.7 M46.4,20.2H3.6c-2.3,0-2.5,1.2-2.3,2.6l2.1,23.4c0.1,1.3,0.4,2.5,2.8,2.5h37.7
	c2.4,0,2.6-1.2,2.8-2.6l2.1-23.4C48.8,21.3,48.7,20.2,46.4,20.2z M25,27v9.8 M20.2,32h9.6 M25,45.1l-6.4-8.3
	c-1.1-1.4-1.7-3.2-1.7-5.1c0-4.6,3.6-8.3,8.1-8.3s8.1,3.7,8.1,8.3c0,1.9-0.6,3.7-1.7,5.1L25,45.1z"/>
</svg>
