<?xml version="1.0" encoding="utf-8"?>
<!-- Generator: Adobe Illustrator 18.0.0, SVG Export Plug-In . SVG Version: 6.00 Build 0)  -->
<!DOCTYPE svg PUBLIC "-//W3C//DTD SVG 1.1//EN" "http://www.w3.org/Graphics/SVG/1.1/DTD/svg11.dtd">
<svg version="1.1" id="Ebene_1" xmlns="http://www.w3.org/2000/svg" xmlns:xlink="http://www.w3.org/1999/xlink" x="0px" y="0px"
	 viewBox="0 0 50 50" style="enable-background:new 0 0 50 50;" xml:space="preserve">
<style type="text/css">
	.st0{fill:none;stroke:#000000;stroke-width:1.3;stroke-linecap:round;stroke-linejoin:round;stroke-miterlimit:10;}
</style>
<path class="st0" d="M37.2,21.6l-0.3-1.3c-0.2-0.7-1-1.3-1.9-1.3h-8.6c-0.9,0-2.1-0.5-2.7-1.1L22.7,17c-0.6-0.6-1.8-1.1-2.7-1.1h-5
	c-0.9,0-1.6,0.7-1.7,1.6l-0.5,4.1 M38.1,21.6H11.9c-1.4,0-1.5,0.7-1.4,1.6l1.3,14.3c0.1,0.9,0.3,1.6,1.7,1.6h23.1
	c1.5,0,1.6-0.7,1.7-1.6l1.3-14.3C39.6,22.3,39.5,21.6,38.1,21.6z M25,25.8v6 M22,28.8h5.9 M25,36.9l-3.9-5.1c-0.6-0.9-1-1.9-1-3.1
	c0-2.8,2.2-5.1,5-5.1s5,2.3,5,5.1c0,1.2-0.4,2.3-1,3.1L25,36.9z"/>
</svg>
