<?xml version="1.0" encoding="utf-8"?>
<!-- Generator: Adobe Illustrator 18.0.0, SVG Export Plug-In . SVG Version: 6.00 Build 0)  -->
<!DOCTYPE svg PUBLIC "-//W3C//DTD SVG 1.1//EN" "http://www.w3.org/Graphics/SVG/1.1/DTD/svg11.dtd">
<svg version="1.1" id="Ebene_1" xmlns="http://www.w3.org/2000/svg" xmlns:xlink="http://www.w3.org/1999/xlink" x="0px" y="0px"
	 viewBox="0 0 50 50" style="enable-background:new 0 0 50 50;" xml:space="preserve">
<style type="text/css">
	.st0{fill:none;stroke:#1E1E1E;stroke-width:1.5;stroke-linecap:round;stroke-linejoin:round;stroke-miterlimit:10;}
	.st1{fill:none;stroke:#1D1D1D;stroke-width:1.5;stroke-linecap:round;stroke-linejoin:round;stroke-miterlimit:10;}
	.st2{fill:none;stroke:#222222;stroke-width:1.4995;stroke-linecap:round;stroke-linejoin:round;stroke-miterlimit:10;}
	.st3{fill:none;stroke:#222222;stroke-width:1.4995;stroke-linejoin:round;stroke-miterlimit:10;}
	.st4{fill:none;stroke:#222222;stroke-width:2.126;stroke-linecap:round;stroke-linejoin:round;stroke-miterlimit:10;}
</style>
<g>
	<path class="st4" d="M39.3,14.2H10.7c-0.5,0-1-0.4-1-1V9.1c0-0.6,0.5-1,1-1h28.6c0.5,0,1,0.4,1,1v4.2
		C40.3,13.8,39.9,14.2,39.3,14.2z"/>
	<path class="st4" d="M37.4,15v29c0,0.7-0.6,1.3-1.3,1.3H13.9c-0.7,0-1.3-0.6-1.3-1.3V15"/>
	<line class="st4" x1="25" y1="4.7" x2="25" y2="8.1"/>
	<line class="st4" x1="18.7" y1="14.2" x2="18.7" y2="39.4"/>
	<line class="st4" x1="31.2" y1="14.2" x2="31.2" y2="39.4"/>
	<line class="st4" x1="25" y1="14.2" x2="25" y2="39.4"/>
</g>
</svg>
