<?xml version="1.0" encoding="utf-8"?>
<!-- Generator: Adobe Illustrator 18.0.0, SVG Export Plug-In . SVG Version: 6.00 Build 0)  -->
<!DOCTYPE svg PUBLIC "-//W3C//DTD SVG 1.1//EN" "http://www.w3.org/Graphics/SVG/1.1/DTD/svg11.dtd">
<svg version="1.1" id="Ebene_1" xmlns="http://www.w3.org/2000/svg" xmlns:xlink="http://www.w3.org/1999/xlink" x="0px" y="0px"
	 viewBox="0 0 60 60" style="enable-background:new 0 0 60 60;" xml:space="preserve">
<style type="text/css">
	.st0{fill:none;}
	.st1{fill:#343434;}
</style>
<rect class="st0" width="60" height="60"/>
<path class="st1" d="M59.7,29.7c-0.7-0.7-1.5-1.1-2.5-1.1c0,0-0.1,0-0.1,0c-1,0-2,0.5-2.6,1.2c-0.1-0.2-0.1-0.3-0.2-0.4
	c-0.4-0.7-1.3-1.2-2.1-1.2c0,0-0.1,0-0.1,0c-1.4,0-2.2,0.6-2.9,1l0,0c-0.4-0.5-1-0.9-1.3-1c-0.3-0.1-0.6-0.1-0.9-0.1
	c-1,0-2.1,0.6-3.1,1.7c-0.1,0.1-0.3,0.4-0.2,0.8c0,0,0,0,0,0c-0.2,0-0.4,0.1-0.6,0.4c-0.5,0.7-0.9,1.6-1.2,2.5
	c-0.5,1.6-0.7,3.3-0.5,4.6c0,0.1,0,0.3,0.1,0.4c-0.6,0.3-1.6,0.7-2.3,0.7c-0.3,0-0.5-0.1-0.6-0.2c-0.4-0.3-0.5-1.7,0.4-4.4l0,0
	c1-2.8,2.1-6,3.2-9.5c0.8,0.2,3.5,0.7,6.9,0.7c3.7,0,6.9-0.6,9.4-1.8c0.3-0.1,0.5-0.3,0.5-0.6c0.1-0.3,0.1-0.6,0-0.8
	c-0.2-0.4-0.6-0.6-1-0.6c-0.2,0-0.3,0-0.5,0.1c-2.3,1.1-5.1,1.6-8.5,1.6c-2.9,0-5.3-0.4-6.2-0.6c0.2-0.7,0.4-1.5,0.7-2.2
	c0.6-2.1,1-3.4,1-3.4c0.1-0.3-0.2-0.7-0.4-0.9c-0.3-0.2-0.6-0.4-0.9-0.5c-0.1,0-0.2,0-0.3,0c-0.5,0-0.9,0.3-1.1,0.8
	c0,0-0.4,1.5-1.2,3.9c-0.1,0.5-0.3,1-0.5,1.7c-5.5-1.1-10.3-1.7-14.4-1.7c-7.9,0-10.5,2.2-10.6,2.3c-0.4,0.4-0.5,1.1-0.1,1.5
	c0.2,0.2,0.5,0.4,0.8,0.4c0.3,0,0.5-0.1,0.7-0.3c0,0,0.6-0.4,2-0.9c1.3-0.4,3.6-0.9,7.2-0.9c3.9,0,8.6,0.6,13.9,1.7l-0.2,0.7
	c-0.8,3.1-1.8,6.7-3,10c-1.1,3-2.1,3.9-2.4,3.9c-0.1,0-0.2-0.1-0.3-0.2c-0.4-0.6-0.8-1.8-0.6-2.5c0.1-0.2,0.2-0.4,0.2-0.6
	c0.1-0.4,0.2-0.7,0.3-1.1l0,0c0.5-1.8,1.3-4.6,1.5-5.5l0,0c0.1-0.3,0-0.6-0.1-0.8c-0.1-0.3-0.4-0.4-0.7-0.5c-0.1,0-0.2,0-0.3,0
	c-0.5,0-0.9,0.3-1.1,0.8l0,0.2c-0.4-0.5-0.9-0.9-1.4-1.1c-0.3-0.1-0.6-0.1-0.9-0.1c-2.1,0-4.3,2.3-5.4,5.6c-0.1,0.2-0.1,0.4-0.2,0.7
	c0,0,0,0,0,0c-0.2-0.1-0.4-0.2-0.6-0.2c-0.4,0-0.8,0.2-0.9,0.5c-0.1,0.1-0.1,0.2-0.1,0.3l0,0c-0.1,0.2-0.1,0.4-0.2,0.6
	c-0.9,2.6-2.1,4.2-3.1,4.2c-0.1,0-0.2,0-0.2,0c-0.4-0.1-0.7-0.8-0.9-1.6c-0.2-1.1,0-2.6,0.5-4c0.9-2.6,2.5-4.2,3.5-4.2
	c0.1,0,0.3,0.1,0.4,0.6c0,0.2,0.1,0.7,0.1,0.8c0.1,0.4,0.6,0.7,1,0.7c0.6,0,1.1-0.5,1.1-1.1c0,0,0,0,0,0l0,0c-0.3-1.6-1-2.5-2.2-2.9
	c-0.3-0.1-0.6-0.1-0.9-0.1c-1.8,0-3.7,1.7-5,4.3c0-0.3,0-0.7-0.1-1c-0.3-1.8-1.1-3-2.4-3.4c-0.3-0.1-0.6-0.1-0.9-0.1
	c-0.8,0-1.7,0.4-2.6,1c0,0-0.2,0.1-0.4,0.1c-0.1,0-0.2,0-0.3-0.1C11,28,10.9,28,10.8,28c-0.1,0-0.2,0.1-0.3,0.2
	C10.2,28.4,10,29.3,10,30c-0.5,0.8-1,1.8-1.3,2.8c-0.6,1.8-0.8,3.6-0.6,5.1c0,0.2,0.1,0.3,0.1,0.5c0,0-0.1,0-0.1,0
	c0,0-1.2,0.7-2.5,0.7c-0.4,0-0.7-0.1-1-0.2c-0.7-0.3-1.3-1-1.6-2.1c-0.2-0.8-0.3-1.9-0.2-3.3c6.8-5.8,8.8-10.8,9.1-11.7
	c0.8-2.5,1.6-8.2-2.2-8.5c-3.2-0.3-5.2,3-6.2,5.7c0,0.1-2.1,6.4-2.9,13.4l-0.2,0.2C0.2,32.7,0,32.9,0,33.2c0,0.3,0,0.6,0.2,0.8
	c0,0.1,0.1,0.1,0.3,0c0,1.4,0.1,2.5,0.3,3.3c0.5,1.8,1.5,3,2.9,3.5c0.6,0.2,1.2,0.3,1.8,0.3c1.7,0,3.2-0.8,3.5-0.9
	c0.4,0.4,0.8,0.7,1.3,0.9c0.3,0.1,0.6,0.2,0.9,0.2c1.8,0,3.8-1.7,5.1-4.4c0,0.3,0,0.6,0.1,0.9c0.3,1.7,1.1,2.9,2.3,3.3
	c0.3,0.1,0.6,0.1,0.9,0.1c1.8,0,3.7-1.6,4.9-4.2c0,0.3,0,0.5,0.1,0.7c0.3,1.7,1.1,2.9,2.3,3.3c0.3,0.1,0.6,0.1,0.9,0.1
	c1.1,0,2.4-0.7,3.4-2c0.4,0.7,1.3,1.9,2.7,1.9l0.1,0c0.9,0,1.7-0.5,2.4-1.4c0.2,0.3,0.4,0.6,0.6,0.8c0.5,0.4,1.2,0.7,2,0.7
	c1.3,0,2.7-0.6,3.2-0.9c0.3,0.3,0.7,0.6,1.1,0.7c0.3,0.1,0.6,0.1,0.9,0.1c2,0,4.1-2.2,5.1-5.3c0.5-1.6,0.7-3.3,0.5-4.6
	c0-0.2-0.1-0.3-0.1-0.5c0,0,0,0,0-0.1c0,0,0,0,0,0c0.2-0.1,0.7-0.4,1.4-0.4c0.3,0,0.5,0,0.8,0.1c0.3,0.1,0.5,0.5-0.4,4.5
	c-0.4,1.9-1.5,4.5-1.6,4.8c-0.2,0.6,0,1.3,0.5,1.5l0,0c0.1,0,0.1,0,0.2,0.1l0.1,0c0,0,0.1,0,0.1,0c0.4,0,0.9-0.3,1.1-0.7
	c0.3-0.7,0.8-2.1,1.2-3.7l0,0c1-3.3,2.1-5,2.1-5c0.4-0.6,1.2-0.9,1.6-1l0,0c0.4,0,0.7,0.1,0.9,0.4c0.2,0.2,0.5,0.3,0.8,0.3
	c0.3,0,0.6-0.1,0.8-0.3C60.1,30.8,60.1,30.1,59.7,29.7C59,28.9,60.1,30.1,59.7,29.7z M44.8,39.2c-0.1,0-0.1,0-0.2,0
	c-0.4-0.1-0.7-0.7-0.8-1.5c-0.2-1,0-2.4,0.4-3.7c0.1-0.4,0.3-0.9,0.5-1.3c0.1,0.1,0.2,0.1,0.4,0.1c0.2,0,0.3-0.1,0.4-0.2
	c0.1-0.1,0.1-0.2,0.1-0.2c-0.1-0.8,0.4-1.4,0.5-1.5c0.5-0.5,1-0.8,1.4-0.8c0.1,0,0.1,0,0.2,0c0.3,0.1,0.4,0.6,0.4,1.5
	c0,1,0,2.4-0.4,3.7C46.9,37.7,45.7,39.2,44.8,39.2z M28.3,39.2c-0.1,0-0.1,0-0.2,0c-0.4-0.1-0.7-0.7-0.8-1.6c-0.2-1.1,0-2.5,0.5-3.9
	c0.9-2.6,2.4-4.1,3.4-4.1c0.1,0,0.1,0,0.2,0c0.8,0.3,1,2.5,0,5.5C30.5,37.5,29.3,39.2,28.3,39.2z M11.7,39.2c-0.1,0-0.1,0-0.1,0l0,0
	c-0.4-0.1-0.7-0.8-0.9-1.6c-0.2-1.1,0-2.6,0.5-4c0.1-0.3,0.2-0.5,0.3-0.8l0.1-0.1l0,0l0,0c0.4-1.1,0.5-1.4,0.5-1.6c0,0,0,0,0,0
	c0.4,0,0.5-0.2,0.6-0.2l0,0l0,0c0.7-0.9,1.5-1.5,2.1-1.5c0.1,0,0.1,0,0.1,0l0,0c0.3,0.1,0.4,0.5,0.4,1.2l0,0c0,0.1,0,0.3,0.1,0.5
	c0.2,1.1,0,2.6-0.5,4C14,37.5,12.8,39.2,11.7,39.2z M3.2,30c0.7-3.9,1.6-6.5,2.4-8.8c0.4-1.2,0.8-2.4,1.5-3.5c0.5-0.9,1.2-2,2.3-2.3
	c1.3-0.3,1.3,1.5,1.2,2.3c-0.1,1.4-0.6,2.7-1.1,3.9C8.6,23.7,7.3,26.4,3.2,30C3.9,26.2,3.2,30,3.2,30z"/>
</svg>
