<?xml version="1.0" encoding="utf-8"?>
<!-- Generator: Adobe Illustrator 16.0.0, SVG Export Plug-In . SVG Version: 6.00 Build 0)  -->
<!DOCTYPE svg PUBLIC "-//W3C//DTD SVG 1.1//EN" "http://www.w3.org/Graphics/SVG/1.1/DTD/svg11.dtd">
<svg version="1.1" id="Ebene_1" xmlns="http://www.w3.org/2000/svg" xmlns:xlink="http://www.w3.org/1999/xlink" x="0px" y="0px"
	 width="285.89px" height="250.389px" viewBox="0 0 285.89 250.389" enable-background="new 0 0 285.89 250.389"
	 xml:space="preserve">
<path fill="#62A7D2" d="M235.468,173.249c0.141-2.029,0.19-4.21,0.641-6.189c1-2.8,1.949-6.21,0.959-9.16
	c-0.789-2.35-3.229-3.85-5.699-3.65c-0.891,0.07-1.721,0.471-2.58,0.7c-0.59,0.16-1.18,0.19-1.78,0.22l-0.01-0.22
	c0.021-4.52-0.03-8.88-0.13-13.02l-0.02-0.08c-1.043,0.271-2.123,0.447-3.214,0.527c-0.647,0.048-1.176-1.438-1.644-1.791
	c-1.353-1.024-2.197-1.966-3.907-2.587c-2.249-0.816-6.077,1.278-7.495-0.512c-1.39-1.756-2.23-3.979-2.23-6.668
	c0-9.04,9.5-12.8,17.41-11.28l0.02-0.09c-0.42-5.83-0.891-11.66-1.641-17.46c-0.17-1.32-0.029-2.71-0.18-4.05
	c-0.17-1.61-0.49-3.2-0.96-4.75c-0.83-2.76-2.159-5.36-3.909-7.66c-7.44-9.82-20.73-13.58-32.341-15.45
	c-4.2-0.67-13.262-1.775-12.7-1.35c1.47,3.215-2.039,3.979-3.83,3.83c-1.069-0.08-2.26-0.46-2.97-1.32
	c-0.28-0.34-0.324-0.746-0.324-1.186c0-0.15,1.141-1.578,0.375-1.641c-0.75-0.359-2.73,0.036-2.73,0.036
	c-1.14,0-2.261,0.01-3.4,0.03c-2.01,0.05-4.01,0.12-6.02,0.229c-1.771,0.101-3.53,0.311-5.3,0.36c-4.99,0.13-9.891,1.45-14.271,3.85
	c-8.71,4.79-14.899,13.181-19.43,21.841c-6.36,12.149-10.55,26.05-12.38,39.649c-0.2,1.49-1.66,3.22-2.93,3.93
	c-1.521,0.851-3.33,0.73-4.951,0.24c-4.279-1.27-7.979-4.49-11.189-7.47c-2.359-2.2-4.609-4.54-6.7-7.021
	c-1.739-2.069-3.71-3.789-5.22-6.09c-1.88-2.87-3.29-6.029-4.29-9.3c-1.2-3.96-1.931-8.18-1.91-12.33c0.03-4.51,3.5-7.26,7.17-9.34
	c3.261-1.85,6.841-3.28,10.45-4.28c1.25-0.35,2.73-1.859,3.74-2.67c1.57-1.24,3.05-2.59,4.43-4.05c2.32-2.46,4.33-5.22,5.9-8.22
	c4.32-8.221,5.619-18.82,2.93-27.811c-0.95,5-3.62,9.41-8.15,11.891c-3.93,2.14-8.539,2.729-12.959,2.79
	c-4.471,0.05-9.471-1.25-13.611,0.899c-2.399,1.24-4.409,3.51-5.31,6.07c-0.02-8.54-9.94-12.35-16.95-13.71
	c-6.819-1.33-11.199-7.59-12.189-14.23c-0.061,1.67-0.04,3.44-0.45,5.08c-0.229,0.91-0.72,1.74-1.101,2.59
	c-1.01,2.29-1.719,4.721-2.389,7.131c-1.091,3.97-2.031,7.89-1.721,12.04c0.43,5.729,2.93,11.14,6.65,15.479
	c2.89,3.36,6.779,5.32,9.99,8.34c6.789,6.391,11.469,15.91,10.659,25.4c-0.079,1.02,0.32,2.06,0.57,3.04
	c0.87,3.35,1.88,6.66,2.989,9.939c3.601,10.61,8.261,20.891,14.061,30.48c7.37,12.16,16.811,23.81,28.61,31.95
	c-0.91,5.77,0.96,11.979,4.55,16.479c1.16-3.689,2.45-7.689,4.3-11.27l0.101,0.05c10.77,5.43,22.449,9.02,34.34,11.54
	c1.77,0.38,3.55,0.729,5.33,1.05c5.369,1,10.75,1.8,16.09,2.47c16.46,2.08,33.41,3.16,49.98,1.74c5.1-0.439,9.59-1.42,14.35-3.32
	c3.88-1.55,7.529-3.18,7.439-7.85c-0.06-2.95-0.64-5.88-0.89-8.82C235.088,182.599,235.128,177.909,235.468,173.249z
	 M163.234,141.621c-1.922,0.663-4.4-1.755-6.92-1.309c-2.787,0.494-5.625,3.796-7.818,3.289c-3.098-0.716-6.014-2.113-8.428-4.242
	c-5.14-4.54-6.899-11.89-3.52-18.021c3.561-6.47,11.23-9.659,18.37-9.359c8.819,0.37,18.24,6.58,18.24,16.189
	C173.159,135.289,169.674,139.39,163.234,141.621z"/>
<path fill="#4A7DB5" d="M181.706,160.96c-0.546,0-1.05-0.356-1.211-0.907c-0.196-0.669,0.187-1.37,0.855-1.567
	c0.011-0.003,0.135-0.049,0.145-0.053c8.643-3.143,19.036-4.935,30.87-5.317c4.633-0.146,9.265-0.014,13.763,0.384
	c2.497,0.214,5.107,0.533,7.755,0.951c0.319,0.053,0.629,0.071,0.939,0.093l0.215,0.015c0.695,0.051,1.219,0.655,1.168,1.351
	c-0.049,0.696-0.664,1.211-1.35,1.169l-0.205-0.015c-0.391-0.026-0.779-0.055-1.17-0.119c-2.58-0.407-5.131-0.72-7.571-0.929
	c-4.403-0.389-8.931-0.516-13.464-0.376c-11.565,0.375-21.695,2.115-30.107,5.175c-0.127,0.047-0.201,0.073-0.275,0.096
	C181.943,160.944,181.824,160.96,181.706,160.96z"/>
<path fill="none" stroke="#000817" stroke-width="2.5253" stroke-miterlimit="10" d="M108.758,190.389"/>
<path fill="none" stroke="#000817" stroke-width="2.5253" stroke-miterlimit="10" d="M111.449,186.088"/>
<path fill="none" stroke="#000817" stroke-width="2.5253" stroke-miterlimit="10" d="M99.909,185.179"/>
<path fill="#62A7D2" d="M148.529,203.029c-0.65,1.71-1.271,3.45-1.82,5.2c-1.51-1.88-2.71-3.98-3.51-6.25
	C144.968,202.359,146.749,202.708,148.529,203.029z"/>
<path fill="#4A7DB5" d="M156.946,128.169c0,3.761-7.229,3.761-7.229,0C149.716,124.41,156.946,124.41,156.946,128.169z"/>
<path fill="#4A7DB5" d="M228.488,130.209c0,2.73-5.239,2.73-5.239,0C223.249,127.49,228.488,127.49,228.488,130.209z"/>
<path fill="none" stroke="#5BCAE8" stroke-width="2.5253" stroke-linecap="round" stroke-miterlimit="10" d="M172.537,65.509
	c0-6.847,5.543-12.388,12.393-12.388"/>
<path fill="none" stroke="#5BCAE8" stroke-width="2.5253" stroke-linecap="round" stroke-miterlimit="10" d="M153.498,46.19
	c8.665,0,15.685,7.016,15.685,15.688"/>
<path fill="none" stroke="#5BCAE8" stroke-width="2.5253" stroke-linecap="round" stroke-miterlimit="10" d="M173.708,44.889
	c-2.384,3.108-2.813,4.479-2.502,9.146"/>
<path fill="none" stroke="#4A7DB5" stroke-width="3" stroke-miterlimit="10" d="M147.98,143.529c5.02-3.479,11.188-4.28,16.896-2.13
	h0.143c4.67-2.83,8.14-7.57,8.14-13.23c0-9.609-9.421-15.819-18.24-16.189c-7.14-0.3-14.81,2.89-18.37,9.359
	c-3.38,6.131-1.62,13.48,3.52,18.021c2.24,1.979,4.92,3.37,7.771,4.17H147.98z"/>
<path fill="none" stroke="#4A7DB5" stroke-width="2.5" stroke-miterlimit="10" d="M224.849,142.239c0.68-0.09,1.35-0.22,2-0.39
	c5.149-1.33,9.359-5.011,9.359-11.03c0-6.44-4.82-10.2-10.439-11.28c-7.91-1.52-17.41,2.24-17.41,11.28c0,2.54,0.75,4.67,2,6.37
	h0.141c5.32-0.48,10.338,1.37,14.207,5.05H224.849z"/>
</svg>
