<?xml version="1.0" encoding="utf-8"?>
<!-- Generator: Adobe Illustrator 18.0.0, SVG Export Plug-In . SVG Version: 6.00 Build 0)  -->
<!DOCTYPE svg PUBLIC "-//W3C//DTD SVG 1.1//EN" "http://www.w3.org/Graphics/SVG/1.1/DTD/svg11.dtd">
<svg version="1.1" id="Ebene_1" xmlns="http://www.w3.org/2000/svg" xmlns:xlink="http://www.w3.org/1999/xlink" x="0px" y="0px"
	 viewBox="0 0 540 540" style="enable-background:new 0 0 540 540;" xml:space="preserve">
<style type="text/css">
	.st0{fill:#64A8D3;}
	.st1{fill:#4B7EB6;}
	.st2{fill:none;stroke:#070C15;stroke-width:6.3424;stroke-miterlimit:10;}
	.st3{fill:#62C5E3;}
</style>
<g>
	<path class="st0" d="M530.3,401.3c0.4-5.1,0.5-10.6,1.6-15.5c2.5-7,4.9-15.6,2.4-23c-2-5.9-8.1-9.7-14.3-9.2
		c-2.2,0.2-4.3,1.2-6.5,1.8c-1.5,0.4-3,0.5-4.5,0.6l0-0.6c0.1-11.4-0.1-22.3-0.3-32.7l0-0.2c-2.6,0.7-5.3,1.1-8.1,1.3
		c-1.6,0.1-3-3.6-4.1-4.5c-3.4-2.6-5.5-4.9-9.8-6.5c-5.6-2.1-15.3,3.2-18.8-1.3c-3.5-4.4-5.6-10-5.6-16.7
		c0-22.7,23.9-32.1,43.7-28.3l0-0.2c-1.1-14.6-2.2-29.3-4.1-43.9c-0.4-3.3-0.1-6.8-0.5-10.2c-0.4-4-1.2-8-2.4-11.9
		c-2.1-6.9-5.4-13.5-9.8-19.2c-18.7-24.7-52.1-34.1-81.2-38.8c-10.5-1.7-33.3-4.5-31.9-3.4c3.7,8.1-5.1,10-9.6,9.6
		c-2.7-0.2-5.7-1.2-7.5-3.3c-0.7-0.9-0.8-1.9-0.8-3c0-0.4,2.9-4,0.9-4.1c-1.9-0.9-6.9,0.1-6.9,0.1c-2.9,0-5.7,0-8.5,0.1
		c-5,0.1-10.1,0.3-15.1,0.6c-4.4,0.3-8.9,0.8-13.3,0.9c-12.5,0.3-24.8,3.6-35.8,9.7c-21.9,12-37.4,33.1-48.8,54.9
		c-16,30.5-26.5,65.4-31.1,99.6c-0.5,3.7-4.2,8.1-7.4,9.9c-3.8,2.1-8.4,1.8-12.4,0.6c-10.7-3.2-20-11.3-28.1-18.8
		c-5.9-5.5-11.6-11.4-16.8-17.6c-4.4-5.2-9.3-9.5-13.1-15.3c-4.7-7.2-8.3-15.1-10.8-23.4c-3-9.9-4.8-20.5-4.8-31
		c0.1-11.3,8.8-18.2,18-23.5c8.2-4.6,17.2-8.2,26.2-10.8c3.1-0.9,6.9-4.7,9.4-6.7c3.9-3.1,7.7-6.5,11.1-10.2
		c5.8-6.2,10.9-13.1,14.8-20.6c10.9-20.6,14.1-47.3,7.4-69.8c-2.4,12.6-9.1,23.6-20.5,29.9c-9.9,5.4-21.4,6.9-32.5,7
		c-11.2,0.1-23.8-3.1-34.2,2.3c-6,3.1-11.1,8.8-13.3,15.2c0-21.4-25-31-42.6-34.4c-17.1-3.3-28.1-19.1-30.6-35.7
		c-0.2,4.2-0.1,8.6-1.1,12.8c-0.6,2.3-1.8,4.4-2.8,6.5c-2.5,5.8-4.3,11.9-6,17.9c-2.7,10-5.1,19.8-4.3,30.2
		c1.1,14.4,7.4,28,16.7,38.9c7.3,8.4,17,13.4,25.1,20.9c17.1,16.1,28.8,40,26.8,63.8c-0.2,2.6,0.8,5.2,1.4,7.6
		c2.2,8.4,4.7,16.7,7.5,25c9,26.6,20.7,52.5,35.3,76.6c18.5,30.5,42.2,59.8,71.9,80.2c-2.3,14.5,2.4,30.1,11.4,41.4
		c2.9-9.3,6.2-19.3,10.8-28.3l0.3,0.1c27,13.6,56.4,22.7,86.2,29c4.4,1,8.9,1.8,13.4,2.6c13.5,2.5,27,4.5,40.4,6.2
		c41.3,5.2,83.9,7.9,125.5,4.4c12.8-1.1,24.1-3.6,36-8.3c9.7-3.9,18.9-8,18.7-19.7c-0.1-7.4-1.6-14.8-2.2-22.2
		C529.3,424.8,529.4,413,530.3,401.3z M348.9,321.8c-4.8,1.7-11.1-4.4-17.4-3.3c-7,1.2-14.1,9.5-19.6,8.3
		c-7.8-1.8-15.1-5.3-21.2-10.7c-12.9-11.4-17.3-29.9-8.8-45.3c8.9-16.2,28.2-24.3,46.1-23.5c22.1,0.9,45.8,16.5,45.8,40.7
		C373.8,305.9,365,316.2,348.9,321.8z"/>
</g>
<g>
	<path class="st1" d="M509.6,355.8c1.4,0.1,2.6,1.1,2.9,2.5c0.4,1.7-0.7,3.4-2.4,3.8c0,0-0.3,0.1-0.4,0.1
		c-22.1,6.6-48.5,9.5-78.2,8.7c-11.6-0.3-23.2-1.3-34.4-3c-6.2-0.9-12.7-2.1-19.3-3.5c-0.8-0.2-1.6-0.3-2.3-0.4l-0.5-0.1
		c-1.7-0.2-3-1.8-2.7-3.6c0.2-1.7,1.8-2.9,3.6-2.7l0.5,0.1c1,0.1,1.9,0.3,2.9,0.5c6.4,1.4,12.8,2.6,18.8,3.5c11,1.6,22.3,2.6,33.7,3
		c29.1,0.8,54.7-2.1,76.3-8.5c0.3-0.1,0.5-0.2,0.7-0.2C509,355.8,509.3,355.8,509.6,355.8z"/>
</g>
<g>
	<path class="st2" d="M212.1,444.3"/>
</g>
<g>
	<path class="st2" d="M218.8,433.5"/>
</g>
<g>
	<path class="st2" d="M189.8,431.2"/>
</g>
<g>
	<path class="st0" d="M311.9,476.1c-1.6,4.3-3.2,8.7-4.6,13.1c-3.8-4.7-6.8-10-8.8-15.7C303,474.4,307.5,475.3,311.9,476.1z"/>
</g>
<g>
	<path class="st1" d="M333.1,288.1c0,9.4-18.2,9.4-18.2,0C314.9,278.6,333.1,278.6,333.1,288.1z"/>
</g>
<g>
	<path class="st1" d="M512.8,293.2c0,6.9-13.2,6.9-13.2,0C499.6,286.3,512.8,286.3,512.8,293.2z"/>
</g>
<g>
	<path class="st3" d="M372.2,133.9c-1.8,0-3.2-1.4-3.2-3.2c0-18.9,15.4-34.3,34.3-34.3c1.8,0,3.2,1.4,3.2,3.2s-1.4,3.2-3.2,3.2
		c-15.4,0-28,12.5-28,27.9C375.4,132.4,374,133.9,372.2,133.9z"/>
</g>
<g>
	<path class="st3" d="M363.8,124.7c-1.8,0-3.2-1.4-3.2-3.2c0-20-16.2-36.2-36.2-36.2c-1.8,0-3.2-1.4-3.2-3.2c0-1.8,1.4-3.2,3.2-3.2
		c23.5,0,42.6,19.1,42.6,42.6C367,123.3,365.6,124.7,363.8,124.7z"/>
</g>
<g>
	<path class="st3" d="M368.9,105c-1.7,0-3-1.3-3.2-3c-0.8-12.3,0.3-16.5,6.9-25.1c1.1-1.4,3.1-1.7,4.4-0.6c1.4,1.1,1.7,3.1,0.6,4.4
		c-5.3,6.9-6.4,9.5-5.6,20.8c0.1,1.7-1.2,3.3-3,3.4C369,105,369,105,368.9,105z"/>
</g>
<g>
	<path class="st1" d="M311.7,330.4h-2.1l-0.5-0.1c-7.9-2.2-15.1-6.1-21-11.3c-14.7-13-18.7-33.5-9.6-49.9
		c8.5-15.5,27-25.5,47.1-25.5c0.8,0,1.7,0,2.5,0.1c30.9,1.3,49.4,23.6,49.4,44.4c0,14.4-8.3,28-22.3,36.5l-0.9,0.5h-2.1l-0.6-0.2
		c-13-4.9-27.4-3.1-39,4.9L311.7,330.4z M325.7,251.1c-17.4,0-33.3,8.5-40.5,21.6c-7.3,13.3-4,30,8,40.6c4.7,4.1,10.4,7.3,16.6,9.3
		c12.8-8.3,28.6-10.3,42.9-5.4c10.8-7.1,17.3-17.9,17.3-29.1c0-21.7-21.9-36-42.2-36.9C327.1,251.1,326.4,251.1,325.7,251.1z"/>
</g>
<g>
	<path class="st1" d="M503.8,326.5H502l-0.9-0.9c-9.2-8.8-20.9-13-33.2-11.8l-0.6,0h-1.6l-0.9-1.3c-3.7-5.1-5.6-11.1-5.6-17.9
		c0-21.2,19.2-32.3,38.1-32.3c3.2,0,6.3,0.3,9.3,0.9c17.7,3.4,28.8,15.4,28.8,31.4c0,15.1-9.7,26.6-25.9,30.7
		c-1.7,0.5-3.6,0.8-5.4,1.1L503.8,326.5z M471.7,307.4c11.9,0,23.5,4.5,32.6,12.7c1.2-0.2,2.4-0.4,3.5-0.7
		c13.3-3.4,21.2-12.6,21.2-24.7c0-19.2-18.1-24.2-23.7-25.2c-2.6-0.5-5.4-0.8-8.1-0.8c-15.3,0-31.8,8.1-31.8,26
		c0,4.8,1.2,9.1,3.5,12.8C469.8,307.4,470.8,307.4,471.7,307.4z"/>
</g>
</svg>
