<?xml version="1.0" encoding="utf-8"?>
<!-- Generator: Adobe Illustrator 18.0.0, SVG Export Plug-In . SVG Version: 6.00 Build 0)  -->
<!DOCTYPE svg PUBLIC "-//W3C//DTD SVG 1.1//EN" "http://www.w3.org/Graphics/SVG/1.1/DTD/svg11.dtd">
<svg version="1.1" id="Ebene_1" xmlns="http://www.w3.org/2000/svg" xmlns:xlink="http://www.w3.org/1999/xlink" x="0px" y="0px"
	 viewBox="-42.9 32.1 598.5 484.5" style="enable-background:new -42.9 32.1 598.5 484.5;" xml:space="preserve">
<style type="text/css">
	.st0{fill:#64A8D3;}
	.st1{fill:none;stroke:#64A8D3;stroke-width:3;stroke-linecap:round;stroke-linejoin:round;stroke-miterlimit:10;}
	.st2{fill:none;stroke:#070C15;stroke-width:6.3424;stroke-miterlimit:10;}
	.st3{fill:#62C5E3;}
	.st4{fill:#4B7EB6;}
	.st5{fill:none;stroke:#4B7EB6;stroke-width:7;stroke-linecap:round;stroke-miterlimit:10;}
	.st6{fill:#1D1D1B;}
	.st7{fill:#00C4B7;}
	.st8{fill:#FFFFFF;}
	.st9{fill:#FF4433;}
</style>
<g>
	<path class="st0" d="M359.2,288c7.2-6.6,11-15.7,9.1-24.1c23.8-11.9,42.8-28.9,57.6-46.7c11.7-14,21.1-29.1,28.3-44.6
		c2.2-4.8,6.1-2.5,7.9-7.4c0.5-1.4-0.6-10.1-0.7-11.6c-1.6-13.9,7.8-27.8,21.5-37.1c6.5-4.4,14.3-7.3,20.1-12.2
		c7.4-6.3,12.5-14.3,13.4-22.6c0.6-6.1-1.3-11.8-3.4-17.6c-1.4-3.5-2.8-7-4.8-10.4c-0.8-1.2-1.8-2.4-2.2-3.8c-0.8-2.4-0.7-5-0.9-7.5
		c-2,9.7-10.8,18.9-24.5,20.8c-14.1,2-34.1,7.6-34.1,20c-1.8-3.7-5.8-7-10.6-8.8c-8.3-3.1-18.4-1.3-27.4-1.3
		c-8.9-0.1-18.1-0.9-26-4.1c-9.1-3.7-14.5-10.1-16.4-17.4c-5.4,13.1-2.8,28.6,5.9,40.6c3.1,4.4,7.2,8.4,11.8,12
		c2.7,2.2,6.5,4.7,8.9,5.9c6.8,3.4,12.1,4.7,28.5,10.2c7.6,2.5,14.3,7.1,14.4,13.7c0,6.1-1.4,12.3-3.8,18c-2,4.8-4.9,9.4-8.6,13.6
		c-3,3.4-7,5.9-10.5,8.9c-4.2,3.6-8.7,7-13.5,10.2c-6.5,4.4-13.9,9.1-22.5,10.9c-3.2,0.7-6.9,0.9-9.9-0.3L359.2,288z"/>
	<path class="st1" d="M359.2,288c7.2-6.6,11-15.7,9.1-24.1c23.8-11.9,42.8-28.9,57.6-46.7c11.7-14,21.1-29.1,28.3-44.6
		c2.2-4.8,6.1-2.5,7.9-7.4c0.5-1.4-0.6-10.1-0.7-11.6c-1.6-13.9,7.8-27.8,21.5-37.1c6.5-4.4,14.3-7.3,20.1-12.2
		c7.4-6.3,12.5-14.3,13.4-22.6c0.6-6.1-1.3-11.8-3.4-17.6c-1.4-3.5-2.8-7-4.8-10.4c-0.8-1.2-1.8-2.4-2.2-3.8c-0.8-2.4-0.7-5-0.9-7.5
		c-2,9.7-10.8,18.9-24.5,20.8c-14.1,2-34.1,7.6-34.1,20c-1.8-3.7-5.8-7-10.6-8.8c-8.3-3.1-18.4-1.3-27.4-1.3
		c-8.9-0.1-18.1-0.9-26-4.1c-9.1-3.7-14.5-10.1-16.4-17.4c-5.4,13.1-2.8,28.6,5.9,40.6c3.1,4.4,7.2,8.4,11.8,12
		c2.7,2.2,6.5,4.7,8.9,5.9c6.8,3.4,12.1,4.7,28.5,10.2c7.6,2.5,14.3,7.1,14.4,13.7c0,6.1-1.4,12.3-3.8,18c-2,4.8-4.9,9.4-8.6,13.6
		c-3,3.4-7,5.9-10.5,8.9c-4.2,3.6-8.7,7-13.5,10.2c-6.5,4.4-13.9,9.1-22.5,10.9c-3.2,0.7-6.9,0.9-9.9-0.3L359.2,288z"/>
	<path class="st0" d="M359.2,288c7.2-6.6,11-15.7,9.1-24.1c23.8-11.9,42.8-28.9,57.6-46.7c11.7-14,21.1-29.1,28.3-44.6
		c2.2-4.8,6.1-2.5,7.9-7.4c0.5-1.4-0.6-10.1-0.7-11.6c-1.6-13.9,7.8-27.8,21.5-37.1c6.5-4.4,14.3-7.3,20.1-12.2
		c7.4-6.3,12.5-14.3,13.4-22.6c0.6-6.1-1.3-11.8-3.4-17.6c-1.4-3.5-2.8-7-4.8-10.4c-0.8-1.2-1.8-2.4-2.2-3.8c-0.8-2.4-0.7-5-0.9-7.5
		c-2,9.7-10.8,18.9-24.5,20.8c-14.1,2-34.1,7.6-34.1,20c-1.8-3.7-5.8-7-10.6-8.8c-8.3-3.1-18.4-1.3-27.4-1.3
		c-8.9-0.1-18.1-0.9-26-4.1c-9.1-3.7-14.5-10.1-16.4-17.4c-5.4,13.1-2.8,28.6,5.9,40.6c3.1,4.4,7.2,8.4,11.8,12
		c2.7,2.2,6.5,4.7,8.9,5.9c6.8,3.4,12.1,4.7,28.5,10.2c7.6,2.5,14.3,7.1,14.4,13.7c0,6.1-1.4,12.3-3.8,18c-2,4.8-4.9,9.4-8.6,13.6
		c-3,3.4-7,5.9-10.5,8.9c-4.2,3.6-8.7,7-13.5,10.2c-6.5,4.4-13.9,9.1-22.5,10.9c-3.2,0.7-6.9,0.9-9.9-0.3L359.2,288z"/>
</g>
<g>
	<path class="st0" d="M284.5,288.1c0,9.4,18.2,9.4,18.2,0C302.7,278.6,284.5,278.6,284.5,288.1z M284.5,288.1c0,9.4,18.2,9.4,18.2,0
		C302.7,278.6,284.5,278.6,284.5,288.1z M520.4,402.7c0.4-5.1,0.5-10.6,1.6-15.5c2.5-7,4.9-15.6,2.4-23c-2-5.9-8.1-9.7-14.3-9.2
		c-1.1,0.1-1.1,0.4-1.1,0.4c0.7-79.7-7.2-139.8-7.6-143.2c-0.4-4-1.2-8-2.4-11.9c-2.1-6.9-5.4-13.5-9.8-19.2
		c-7.6-10.1-17.7-17.6-28.9-23.3c-8.6-4.3-17.8-7.6-27.1-10.2c-8.4-2.3-17-4-25.1-5.3c-10.5-1.7-33.3-4.5-31.9-3.4
		c3.7,8.1-5.1,10-9.6,9.6c-2.7-0.2-5.7-1.2-7.5-3.3c-0.7-0.9-0.8-1.9-0.8-3c0-0.4,2.9-4,0.9-4.1c-1.9-0.9-6.9,0.1-6.9,0.1
		c-2.9,0-5.7,0-8.5,0.1c-5,0.1-10.1,0.3-15.1,0.6c-4.4,0.3-8.9,0.8-13.3,0.9c-12.5,0.3-24.8,3.6-35.8,9.7
		c-21.9,12-37.4,33.1-48.8,54.9c-16,30.5-26.5,65.4-31.1,99.6c0,0-2.2,20.7-2.3,25.4c-7.5-6.4-20.3-2.4-12.8,19.6s5.9,37.1,7.7,49.5
		c1.5,10.4,5.9,31.8,11.7,40.5c41.9,63.1,155.1,66.5,295.8,43.8c10.3-1.7,23.2-10.8,23-22.5c-0.1-7.4-1.6-14.8-2.2-22.2
		C519.4,426.2,519.5,414.4,520.4,402.7z M254.8,272.7c7.2-13.1,23.1-21.6,40.5-21.6c0.7,0,1.4,0,2.1,0.1
		c20.3,0.9,42.2,15.2,42.2,36.9c0,11.2-6.5,22-17.3,29.1c-14.3-4.9-30.1-2.9-42.9,5.4c-6.2-2-11.9-5.2-16.6-9.3
		C250.8,302.7,247.5,286,254.8,272.7z M456.8,320.1c-9.1-8.2-20.7-12.7-32.6-12.7c-0.9,0-1.9,0-2.8,0.1c-2.3-3.7-3.5-8-3.5-12.8
		c0-17.9,16.5-26,31.8-26c2.7,0,5.5,0.3,8.1,0.8c5.6,1,23.7,6,23.7,25.2c0,12.1-7.9,21.3-21.2,24.7
		C459.2,319.7,458,319.9,456.8,320.1z M452.2,293.2c0,6.9,13.2,6.9,13.2,0C465.3,286.3,452.2,286.3,452.2,293.2z M302.7,288.1
		c0-9.5-18.2-9.5-18.2,0C284.5,297.5,302.7,297.5,302.7,288.1z"/>
</g>
<g>
	<path class="st2" d="M218.8,433.5"/>
</g>
<g>
	<path class="st3" d="M372.2,133.9c-1.8,0-3.2-1.4-3.2-3.2c0-18.9,15.4-34.3,34.3-34.3c1.8,0,3.2,1.4,3.2,3.2s-1.4,3.2-3.2,3.2
		c-15.4,0-28,12.5-28,27.9C375.4,132.4,374,133.9,372.2,133.9z"/>
</g>
<g>
	<path class="st3" d="M363.8,124.7c-1.8,0-3.2-1.4-3.2-3.2c0-20-16.2-36.2-36.2-36.2c-1.8,0-3.2-1.4-3.2-3.2c0-1.8,1.4-3.2,3.2-3.2
		c23.5,0,42.6,19.1,42.6,42.6C367,123.3,365.6,124.7,363.8,124.7z"/>
</g>
<g>
	<path class="st3" d="M368.9,105c-1.7,0-3-1.3-3.2-3c-0.8-12.3,0.3-16.5,6.9-25.1c1.1-1.4,3.1-1.7,4.4-0.6c1.4,1.1,1.7,3.1,0.6,4.4
		c-5.3,6.9-6.4,9.5-5.6,20.8C372.1,103.2,370.8,104.8,368.9,105C369,105,369,105,368.9,105z"/>
</g>
<g>
	<g>
		<path class="st4" d="M302.7,288.1c0,9.4-18.2,9.4-18.2,0C284.5,278.6,302.7,278.6,302.7,288.1z"/>
	</g>
	<g>
		<path class="st4" d="M297.7,243.7c-0.8-0.1-1.7-0.1-2.5-0.1c-20.1,0-38.6,10-47.1,25.5c-9.1,16.4-5.1,36.9,9.6,49.9
			c5.9,5.2,13.1,9.1,21,11.3l0.5,0.1h2.1l0.9-0.6c11.6-8,26-9.8,39-4.9l0.6,0.2h2.1l0.9-0.5c14-8.5,22.3-22.1,22.3-36.5
			C347.1,267.3,328.6,245,297.7,243.7z M322.3,317.2c-14.3-4.9-30.1-2.9-42.9,5.4c-6.2-2-11.9-5.2-16.6-9.3
			c-12-10.6-15.3-27.3-8-40.6c7.2-13.1,23.1-21.6,40.5-21.6c0.7,0,1.4,0,2.1,0.1c20.3,0.9,42.2,15.2,42.2,36.9
			C339.6,299.3,333.1,310.1,322.3,317.2z"/>
	</g>
</g>
<g>
	<g>
		<path class="st4" d="M465.3,293.2c0,6.9-13.2,6.9-13.2,0C452.2,286.3,465.3,286.3,465.3,293.2z"/>
	</g>
	<g>
		<path class="st4" d="M459.2,263.2c-3-0.6-6.1-0.9-9.3-0.9c-18.9,0-38.1,11.1-38.1,32.3c0,6.8,1.9,12.8,5.6,17.9l0.9,1.3h2.2
			c12.3-1.2,24,3,33.2,11.8l0.9,0.9h1.8l0.3-0.1c1.8-0.3,3.7-0.6,5.4-1.1c16.2-4.1,25.9-15.6,25.9-30.7
			C488,278.6,476.8,266.6,459.2,263.2z M460.3,319.4c-1.1,0.3-2.3,0.5-3.5,0.7c-9.1-8.2-20.7-12.7-32.6-12.7c-0.9,0-1.9,0-2.8,0.1
			c-2.3-3.7-3.5-8-3.5-12.8c0-17.9,16.5-26,31.8-26c2.7,0,5.5,0.3,8.1,0.8c5.6,1,23.7,6,23.7,25.2
			C481.5,306.8,473.7,316,460.3,319.4z"/>
	</g>
</g>
<path class="st5" d="M192.2,330.4c0,0,149.6,87.7,318,28"/>
<g>
	<path class="st6" d="M234.8,113.9l-34.6,360.8c0,0,4.6,6.3,10,1.2l33.4-359.7C243.6,116.2,242.5,109,234.8,113.9z"/>
</g>
<g>
	<g>
		<g>
			<path class="st7" d="M238.1,117.1c-2.5,28.3-5,56.4-7.5,84.3c-7.7,6.7-15.8,11.4-24.2,14c-24.3,7.1-44.3-4.3-52-8.2
				c2.3-3.7,4.6-7.6,6.9-11.6c6.6-11.3,10.5-19.1,10.6-19.1c1-2-0.9-4.4-2.7-6.1c-2-1.9-4.9-4-7.5-5.4c-0.8-0.4-1.7-0.8-2.5-1.1
				c-4.1-1.4-8-1-9.4,1.5c0,0-4.6,7.9-12.2,19.5c-1.5,2.3-3.2,5-5.1,8.2c-45.1-33.7-85.4-68.6-119.9-64.4
				c-12.2,0.9-22.9,5.8-32.3,12.9c2-22.1,4-44.1,6-66C70.3,29.7,154.2,197.5,238.1,117.1z"/>
			<path class="st8" d="M230.5,201.4c-0.4,5-0.9,9.9-1.3,14.9c-7.8,6.5-16,11-24.4,13.3c-28.1,7.2-50.5-8.7-57-12.1
				c-9.6,14.7-18.8,27-27.4,37.5c-4.7,7-9.6,12.9-12.5,15.8c-1.6,1.6-5.9,1-9.4-1.2c-0.4-0.3-0.8-0.5-1.2-0.8
				c-0.1-0.1-0.3-0.2-0.4-0.3c-1-0.8-1-0.8-1.8-1.5c-0.1-0.1-0.1-0.1-0.2-0.2c-4.4-4.2-5.9-9.4-3.5-11.9
				c12.2-13.8,24.4-33.7,33.4-48.8c0.6-1.1,1.3-2.2,1.9-3.3c-19.7-14.7-38.4-30.1-56-41.3c-21.4-13.8-41.3-21.1-59.3-19.2
				c-2.5,0.3-4.9,0.7-7.2,1.2c-9.4,2.2-17.7,6.9-25,12.6c0.4-4.9,0.9-9.8,1.3-14.7c9.4-7.1,20.1-12,32.3-12.9
				c34.5-4.2,74.9,30.7,119.9,64.4c1.9-3.2,3.6-5.9,5.1-8.2c7.6-11.6,12.2-19.5,12.2-19.5c1.4-2.4,5.3-2.9,9.4-1.5
				c0.8,0.3,1.7,0.7,2.5,1.1c2.5,1.4,5.5,3.5,7.5,5.4c1.8,1.7,3.7,4.1,2.7,6.1c0,0-4,7.8-10.6,19.1c-2.3,4-4.7,7.9-6.9,11.6
				c7.7,3.8,27.7,15.3,52,8.2C214.8,212.8,222.8,208.1,230.5,201.4z"/>
		</g>
		<path class="st9" d="M229.2,216.3c-3.3,36.5-6.6,72.6-9.9,108.4c-83.9,46.3-167.9-121.3-251.8-40.5c3.8-43.2,7.6-85.8,11.5-128
			c7.2-5.7,15.5-10.3,25-12.6c2.3-0.6,4.7-1,7.2-1.2c18.1-1.9,37.9,5.4,59.3,19.2c17.7,11.2,36.4,26.6,56,41.3
			c-0.6,1.1-1.3,2.2-1.9,3.3c-8.9,15.1-21.1,35-33.4,48.8c-2.4,2.4-0.8,7.6,3.5,11.9c0.1,0.1,0.1,0.1,0.2,0.2
			c0.7,0.7,0.8,0.7,1.8,1.5c0.1,0.1,0.3,0.2,0.4,0.3c0.4,0.3,0.8,0.6,1.2,0.8c3.5,2.2,7.8,2.8,9.4,1.2c2.9-2.9,7.8-8.8,12.5-15.8
			c8.7-10.6,17.9-22.9,27.4-37.5c6.5,3.3,28.9,19.3,57,12.1C213.2,227.3,221.4,222.8,229.2,216.3z"/>
	</g>
</g>
<path class="st0" d="M221.9,433.6c0,0-22.9-4-25.2-16.9C192.8,426.2,190,473.9,221.9,433.6z"/>
<path class="st0" d="M520.5,438.1c10.9,3.7,12.9,13,12.9,13s-9.7,4.6-11.9,1.4c-2-2.9-11.2-7.2-11.2-7.2S517.5,437.1,520.5,438.1z"
	/>
</svg>
