<?xml version="1.0" encoding="utf-8"?>
<!-- Generator: Adobe Illustrator 18.0.0, SVG Export Plug-In . SVG Version: 6.00 Build 0)  -->
<!DOCTYPE svg PUBLIC "-//W3C//DTD SVG 1.1//EN" "http://www.w3.org/Graphics/SVG/1.1/DTD/svg11.dtd">
<svg version="1.1" id="Ebene_1" xmlns="http://www.w3.org/2000/svg" xmlns:xlink="http://www.w3.org/1999/xlink" x="0px" y="0px"
	 viewBox="270.6 298.2 532.3 532.3" style="enable-background:new 270.6 298.2 532.3 532.3;" xml:space="preserve">
<style type="text/css">
	.st0{fill:#64A8D3;}
	.st1{fill:none;stroke:#64A8D3;stroke-width:3;stroke-linecap:round;stroke-linejoin:round;stroke-miterlimit:10;}
	.st2{fill:none;stroke:#070C15;stroke-width:6.3424;stroke-miterlimit:10;}
	.st3{fill:#62C5E3;}
	.st4{fill:#4B7EB6;}
	.st5{fill:none;stroke:#4B7EB6;stroke-width:6;stroke-linecap:round;stroke-miterlimit:10;}
</style>
<g>
	<path class="st0" d="M530.6,576.5c6.2-5.7,9.5-13.6,7.9-20.9c20.5-10.3,36.9-25,49.8-40.4c10.2-12.2,18.2-25.1,24.5-38.6
		c2-4.1,5.3-2.1,6.9-6.4c0.5-1.1-0.5-8.7-0.7-10c-1.3-12,6.7-24,18.6-32c5.6-3.8,12.3-6.2,17.4-10.5c6.4-5.4,10.8-12.3,11.7-19.5
		c0.5-5.3-1.1-10.2-3-15.3c-1.1-3-2.5-6.1-4.1-9c-0.7-1-1.5-2.1-2-3.3c-0.7-2.1-0.7-4.3-0.8-6.4c-1.8,8.4-9.4,16.4-21.2,18.1
		c-12.2,1.8-29.6,6.6-29.6,17.2c-1.5-3.1-5.1-6.1-9.2-7.6c-7.2-2.6-15.9-1.1-23.6-1.1c-7.7-0.2-15.6-0.8-22.5-3.6
		c-7.9-3.1-12.5-8.7-14.1-15.1c-4.6,11.3-2.5,24.8,5.1,35.1c2.6,3.8,6.2,7.2,10.2,10.3c2.3,2,5.6,4.1,7.7,5.1
		c5.9,3,10.5,4.1,24.6,8.9c6.6,2.1,12.3,6.1,12.5,11.8c0,5.3-1.1,10.7-3.3,15.6c-1.8,4.1-4.3,8-7.4,11.8c-2.6,3-6.1,5.1-9,7.7
		c-3.6,3.1-7.6,6.1-11.7,8.9c-5.6,3.8-12,7.9-19.4,9.4c-2.8,0.7-5.9,0.8-8.5-0.3L530.6,576.5z"/>
	<path class="st1" d="M530.6,576.5c6.2-5.7,9.5-13.6,7.9-20.9c20.5-10.3,36.9-25,49.8-40.4c10.2-12.2,18.2-25.1,24.5-38.6
		c2-4.1,5.3-2.1,6.9-6.4c0.5-1.1-0.5-8.7-0.7-10c-1.3-12,6.7-24,18.6-32c5.6-3.8,12.3-6.2,17.4-10.5c6.4-5.4,10.8-12.3,11.7-19.5
		c0.5-5.3-1.1-10.2-3-15.3c-1.1-3-2.5-6.1-4.1-9c-0.7-1-1.5-2.1-2-3.3c-0.7-2.1-0.7-4.3-0.8-6.4c-1.8,8.4-9.4,16.4-21.2,18.1
		c-12.2,1.8-29.6,6.6-29.6,17.2c-1.5-3.1-5.1-6.1-9.2-7.6c-7.2-2.6-15.9-1.1-23.6-1.1c-7.7-0.2-15.6-0.8-22.5-3.6
		c-7.9-3.1-12.5-8.7-14.1-15.1c-4.6,11.3-2.5,24.8,5.1,35.1c2.6,3.8,6.2,7.2,10.2,10.3c2.3,2,5.6,4.1,7.7,5.1
		c5.9,3,10.5,4.1,24.6,8.9c6.6,2.1,12.3,6.1,12.5,11.8c0,5.3-1.1,10.7-3.3,15.6c-1.8,4.1-4.3,8-7.4,11.8c-2.6,3-6.1,5.1-9,7.7
		c-3.6,3.1-7.6,6.1-11.7,8.9c-5.6,3.8-12,7.9-19.4,9.4c-2.8,0.7-5.9,0.8-8.5-0.3L530.6,576.5z"/>
	<path class="st0" d="M530.6,576.5c6.2-5.7,9.5-13.6,7.9-20.9c20.5-10.3,36.9-25,49.8-40.4c10.2-12.2,18.2-25.1,24.5-38.6
		c2-4.1,5.3-2.1,6.9-6.4c0.5-1.1-0.5-8.7-0.7-10c-1.3-12,6.7-24,18.6-32c5.6-3.8,12.3-6.2,17.4-10.5c6.4-5.4,10.8-12.3,11.7-19.5
		c0.5-5.3-1.1-10.2-3-15.3c-1.1-3-2.5-6.1-4.1-9c-0.7-1-1.5-2.1-2-3.3c-0.7-2.1-0.7-4.3-0.8-6.4c-1.8,8.4-9.4,16.4-21.2,18.1
		c-12.2,1.8-29.6,6.6-29.6,17.2c-1.5-3.1-5.1-6.1-9.2-7.6c-7.2-2.6-15.9-1.1-23.6-1.1c-7.7-0.2-15.6-0.8-22.5-3.6
		c-7.9-3.1-12.5-8.7-14.1-15.1c-4.6,11.3-2.5,24.8,5.1,35.1c2.6,3.8,6.2,7.2,10.2,10.3c2.3,2,5.6,4.1,7.7,5.1
		c5.9,3,10.5,4.1,24.6,8.9c6.6,2.1,12.3,6.1,12.5,11.8c0,5.3-1.1,10.7-3.3,15.6c-1.8,4.1-4.3,8-7.4,11.8c-2.6,3-6.1,5.1-9,7.7
		c-3.6,3.1-7.6,6.1-11.7,8.9c-5.6,3.8-12,7.9-19.4,9.4c-2.8,0.7-5.9,0.8-8.5-0.3L530.6,576.5z"/>
</g>
<g>
	<path class="st0" d="M465.9,576.6c0,8,15.8,8,15.8,0C481.6,568.4,465.9,568.4,465.9,576.6z M465.9,576.6c0,8,15.8,8,15.8,0
		C481.6,568.4,465.9,568.4,465.9,576.6z M669.8,675.6c0.3-4.4,0.5-9.2,1.3-13.5c2.1-6.1,4.3-13.5,2.1-19.9
		c-1.8-5.1-7.1-8.4-12.3-7.9c-1,0.2-1,0.3-1,0.3c0.7-69-6.2-120.9-6.6-123.8c-0.3-3.4-1-6.9-2.1-10.3c-1.8-5.9-4.6-11.7-8.5-16.6
		c-6.6-8.7-15.3-15.3-25-20.2c-7.4-3.8-15.4-6.6-23.5-8.9c-7.2-2-14.8-3.4-21.7-4.6c-9-1.5-28.7-3.9-27.6-3c3.1,7.1-4.4,8.7-8.4,8.4
		c-2.3-0.2-4.9-1-6.4-2.8c-0.7-0.8-0.7-1.6-0.7-2.6c0-0.3,2.5-3.4,0.8-3.6c-1.6-0.8-5.9,0.2-5.9,0.2c-2.5,0-4.9,0-7.4,0.2
		c-4.3,0.2-8.7,0.3-13.1,0.5c-3.8,0.3-7.7,0.7-11.5,0.8c-10.8,0.3-21.5,3.1-31,8.4c-18.9,10.3-32.3,28.6-42.2,47.5
		c-13.8,26.4-23,56.5-26.9,86c0,0-2,17.9-2,22c-6.4-5.6-17.6-2.1-11,16.9c6.4,19,5.1,32,6.7,42.9c1.3,9,5.1,27.4,10.2,35
		c36.3,54.5,134.2,57.5,255.8,37.9c8.9-1.5,20-9.4,19.9-19.4c-0.2-6.4-1.3-12.8-2-19.2C669,696,669.1,685.8,669.8,675.6z
		 M440.2,563.3c6.2-11.3,20-18.7,35-18.7c0.7,0,1.1,0,1.8,0.2c17.6,0.8,36.5,13.1,36.5,31.9c0,9.7-5.6,19-14.9,25.1
		c-12.3-4.3-25.9-2.5-37.1,4.6c-5.4-1.8-10.3-4.4-14.3-8C436.8,589.3,433.8,574.8,440.2,563.3z M615,604.4c-7.9-7.1-17.9-11-28.2-11
		c-0.8,0-1.6,0-2.5,0.2c-2-3.1-3-6.9-3-11c0-15.4,14.3-22.5,27.4-22.5c2.3,0,4.8,0.3,7.1,0.7c4.8,0.8,20.5,5.3,20.5,21.8
		c0,10.5-6.9,18.4-18.4,21.3C616.9,603.9,615.9,604,615,604.4z M610.9,581c0,5.9,11.5,5.9,11.5,0C622.2,575.1,610.9,575.1,610.9,581
		z M481.6,576.6c0-8.2-15.8-8.2-15.8,0C465.9,584.7,481.6,584.7,481.6,576.6z"/>
</g>
<g>
	<path class="st2" d="M409,702.4"/>
</g>
<g>
	<path class="st3" d="M541.7,443.3c-1.5,0-2.8-1.1-2.8-2.8c0-16.4,13.3-29.7,29.7-29.7c1.5,0,2.8,1.1,2.8,2.8c0,1.6-1.1,2.8-2.8,2.8
		c-13.3,0-24.1,10.8-24.1,24.1C544.5,442,543.4,443.3,541.7,443.3z"/>
</g>
<g>
	<path class="st3" d="M534.5,435.4c-1.5,0-2.8-1.1-2.8-2.8c0-17.2-14-31.4-31.4-31.4c-1.5,0-2.8-1.1-2.8-2.8c0-1.5,1.1-2.8,2.8-2.8
		c20.4,0,36.8,16.6,36.8,36.8C537.3,434.1,536,435.4,534.5,435.4z"/>
</g>
<g>
	<path class="st3" d="M538.9,418.3c-1.5,0-2.6-1.1-2.8-2.6c-0.7-10.7,0.3-14.3,5.9-21.7c1-1.1,2.6-1.5,3.8-0.5
		c1.1,1,1.5,2.6,0.5,3.8c-4.6,5.9-5.6,8.2-4.8,18.1C541.7,416.7,540.6,418.2,538.9,418.3L538.9,418.3z"/>
</g>
<g>
	<g>
		<path class="st4" d="M481.6,576.6c0,8-15.8,8-15.8,0C465.9,568.4,481.6,568.4,481.6,576.6z"/>
	</g>
	<g>
		<path class="st4" d="M477.4,538.2c-0.7-0.2-1.5-0.2-2.1-0.2c-17.4,0-33.3,8.7-40.7,22c-7.9,14.1-4.4,31.9,8.4,43.2
			c5.1,4.4,11.3,7.9,18.2,9.9l0.5,0.2h1.8l0.8-0.5c10-6.9,22.5-8.5,33.7-4.3l0.5,0.2h1.8l0.8-0.5c12.2-7.4,19.2-19,19.2-31.5
			C520,558.6,504.1,539.3,477.4,538.2z M498.5,601.7c-12.3-4.3-25.9-2.5-37.1,4.6c-5.4-1.8-10.3-4.4-14.3-8
			c-10.3-9.2-13.3-23.6-6.9-35.1c6.2-11.3,20-18.7,35-18.7c0.7,0,1.1,0,1.8,0.2c17.6,0.8,36.5,13.1,36.5,31.9
			C513.5,586.3,507.9,595.7,498.5,601.7z"/>
	</g>
</g>
<g>
	<g>
		<path class="st4" d="M622.2,581c0,5.9-11.5,5.9-11.5,0C610.9,575.1,622.2,575.1,622.2,581z"/>
	</g>
	<g>
		<path class="st4" d="M616.9,555.1c-2.6-0.5-5.3-0.8-8-0.8c-16.4,0-33,9.5-33,27.9c0,5.9,1.6,11,4.8,15.4l0.8,1.1h2
			c10.7-1,20.7,2.6,28.7,10.2l0.8,0.8h1.5l0.3-0.2c1.5-0.3,3.1-0.5,4.6-1c14-3.6,22.3-13.5,22.3-26.6
			C641.9,568.4,632.2,558.1,616.9,555.1z M617.9,603.7c-1,0.3-2,0.5-3,0.7c-7.9-7.1-17.9-11-28.2-11c-0.8,0-1.6,0-2.5,0.2
			c-2-3.1-3-6.9-3-11c0-15.4,14.3-22.5,27.4-22.5c2.3,0,4.8,0.3,7.1,0.7c4.8,0.8,20.5,5.3,20.5,21.8
			C636.3,592.7,629.6,600.8,617.9,603.7z"/>
	</g>
</g>
<path class="st5" d="M386.1,613.2c0,0,129.4,75.9,274.9,24.1"/>
<path class="st0" d="M411.8,702.4c0,0-19.9-3.4-21.8-14.6C386.5,696,384.2,737.2,411.8,702.4z"/>
<path class="st0" d="M670,706.3c9.4,3.1,11.2,11.2,11.2,11.2s-8.4,3.9-10.3,1.1c-1.8-2.5-9.7-6.2-9.7-6.2S667.3,705.5,670,706.3z"/>
</svg>
