<?xml version="1.0" encoding="utf-8"?>
<!-- Generator: Adobe Illustrator 18.0.0, SVG Export Plug-In . SVG Version: 6.00 Build 0)  -->
<!DOCTYPE svg PUBLIC "-//W3C//DTD SVG 1.1//EN" "http://www.w3.org/Graphics/SVG/1.1/DTD/svg11.dtd">
<svg version="1.1" id="Ebene_1" xmlns="http://www.w3.org/2000/svg" xmlns:xlink="http://www.w3.org/1999/xlink" x="0px" y="0px"
	 viewBox="0 0 50 50" style="enable-background:new 0 0 50 50;" xml:space="preserve">
<style type="text/css">
	.st0{fill:none;stroke:#212121;stroke-width:1.5;stroke-linecap:round;stroke-linejoin:round;stroke-miterlimit:10;}
	.st1{fill:none;stroke:#212121;stroke-width:1.5;stroke-linejoin:round;stroke-miterlimit:10;}
</style>
<g>
	<path class="st0" d="M38.6,20.6c0,7.4-7.1,13.4-15.9,13.4c-2.4,0-4.7-0.5-6.8-1.3l-5.3,4.1l0.9-6.6c-2.9-2.4-4.8-5.8-4.8-9.5
		c0-7.4,7.1-13.4,15.9-13.4C31.4,7.2,38.6,13.2,38.6,20.6z M38.6,21.8c2.9,2,4.8,4.9,4.8,8.3c0,2.9-1.4,5.6-3.8,7.5l0.7,5.3
		l-4.2-3.2c-1.6,0.7-3.4,1-5.3,1c-5.5,0-10.1-2.9-11.9-7"/>
</g>
</svg>
