<?xml version="1.0" encoding="utf-8"?>
<!-- Generator: Adobe Illustrator 18.0.0, SVG Export Plug-In . SVG Version: 6.00 Build 0)  -->
<!DOCTYPE svg PUBLIC "-//W3C//DTD SVG 1.1//EN" "http://www.w3.org/Graphics/SVG/1.1/DTD/svg11.dtd">
<svg version="1.1" id="Ebene_1" xmlns="http://www.w3.org/2000/svg" xmlns:xlink="http://www.w3.org/1999/xlink" x="0px" y="0px"
	 viewBox="0 0 50 50" style="enable-background:new 0 0 50 50;" xml:space="preserve">
<style type="text/css">
	.st0{fill:none;}
	.st1{fill:none;stroke:#222222;stroke-width:1.5;stroke-linecap:round;stroke-linejoin:round;stroke-miterlimit:10;}
	.st2{fill:none;stroke:#222222;stroke-width:1.5;stroke-miterlimit:10;}
</style>
<g>
	<circle class="st0" cx="25" cy="25" r="25"/>
</g>
<g>
	<path class="st1" d="M44.6,25c-3.4,5.9-11,9.9-19.6,9.9c-8.7,0-16.1-4-19.6-9.9c3.4-5.9,11-9.9,19.6-9.9
		C33.7,15.1,41.2,19.1,44.6,25z"/>
	<path class="st2" d="M21.2,25c0-2,1.8-3.8,3.8-3.8c2.1,0,3.8,1.6,3.8,3.8s-1.6,3.8-3.8,3.8C23,28.9,21.2,27.1,21.2,25"/>
	<circle class="st2" cx="25" cy="25" r="3.8"/>
	<path class="st1" d="M15.1,24.9c0-5.4,4.4-9.8,9.9-9.8s9.9,4.4,9.9,9.9s-4.4,9.9-9.9,9.9C19.5,34.8,15.1,30.4,15.1,24.9z"/>
</g>
</svg>
