<?xml version="1.0" encoding="utf-8"?>
<!-- Generator: Adobe Illustrator 18.0.0, SVG Export Plug-In . SVG Version: 6.00 Build 0)  -->
<!DOCTYPE svg PUBLIC "-//W3C//DTD SVG 1.1//EN" "http://www.w3.org/Graphics/SVG/1.1/DTD/svg11.dtd">
<svg version="1.1" id="Ebene_1" xmlns="http://www.w3.org/2000/svg" xmlns:xlink="http://www.w3.org/1999/xlink" x="0px" y="0px"
	 viewBox="0 0 50 50" style="enable-background:new 0 0 50 50;" xml:space="preserve">
<style type="text/css">
	.st0{fill:#212121;}
	.st1{fill:#FFFFFF;}
</style>
<g>
	<circle class="st0" cx="25" cy="25" r="25"/>
</g>
<g>
	<g>
		<path class="st1" d="M37.6,34.2h-25c-0.3,0-0.5-0.2-0.5-0.5V17.6c0-0.3,0.2-0.5,0.5-0.5h25c0.3,0,0.5,0.2,0.5,0.5v16.1
			C38.1,34,37.8,34.2,37.6,34.2z M13.1,33.2h24V18.1h-24V33.2z"/>
	</g>
	<g>
		<path class="st1" d="M27.9,30.9c-2.9,0-5.3-2.4-5.3-5.3c0-2.9,2.4-5.3,5.3-5.3c2.9,0,5.3,2.4,5.3,5.3
			C33.2,28.6,30.9,30.9,27.9,30.9z M27.9,21.3c-2.4,0-4.3,1.9-4.3,4.3c0,2.4,1.9,4.3,4.3,4.3c2.4,0,4.3-1.9,4.3-4.3
			C32.2,23.3,30.3,21.3,27.9,21.3z"/>
	</g>
	<g>
		<path class="st1" d="M32.8,18.1C32.7,18.1,32.7,18.1,32.8,18.1h-9.6c-0.2,0-0.3-0.1-0.4-0.2c-0.1-0.1-0.1-0.3,0-0.5l2-4.2
			c0.1-0.2,0.3-0.3,0.5-0.3h5.7c0.2,0,0.4,0.1,0.5,0.3l1.9,4.1c0.1,0.1,0.1,0.2,0.1,0.3C33.2,17.9,33,18.1,32.8,18.1z M23.9,17.1h8
			l-1.5-3.2h-5L23.9,17.1z"/>
	</g>
</g>
</svg>
