<?xml version="1.0" encoding="utf-8"?>
<!-- Generator: Adobe Illustrator 18.0.0, SVG Export Plug-In . SVG Version: 6.00 Build 0)  -->
<!DOCTYPE svg PUBLIC "-//W3C//DTD SVG 1.1//EN" "http://www.w3.org/Graphics/SVG/1.1/DTD/svg11.dtd">
<svg version="1.1" id="Ebene_1" xmlns="http://www.w3.org/2000/svg" xmlns:xlink="http://www.w3.org/1999/xlink" x="0px" y="0px"
	 viewBox="0 0 50 50" style="enable-background:new 0 0 50 50;" xml:space="preserve">
<style type="text/css">
	.st0{fill:none;stroke:#1D1D1D;stroke-width:1.5;stroke-linecap:round;stroke-linejoin:round;stroke-miterlimit:10;}
	.st1{fill:none;stroke:#1C1C1C;stroke-width:1.5;stroke-linecap:round;stroke-linejoin:round;stroke-miterlimit:10;}
	.st2{fill:none;stroke:#212121;stroke-width:1.5;stroke-linecap:round;stroke-linejoin:round;stroke-miterlimit:10;}
	.st3{fill:none;stroke:#212121;stroke-width:1.5;stroke-linejoin:round;stroke-miterlimit:10;}
	.st4{fill:none;stroke:#222222;stroke-width:1.5;stroke-linecap:round;stroke-linejoin:round;stroke-miterlimit:10;}
	.st5{fill:none;}
	.st6{fill:#222222;}
	.st7{fill:none;stroke:#222222;stroke-width:1.5;stroke-miterlimit:10;}
	.st8{fill:none;stroke:#222222;stroke-width:1.5;stroke-linecap:round;stroke-linejoin:round;stroke-miterlimit:2;}
	.st9{fill:none;stroke:#FFFFFF;stroke-width:1.5;stroke-linecap:round;stroke-linejoin:round;stroke-miterlimit:10;}
	.st10{fill:#FFFFFF;}
	.st11{fill:none;stroke:#FFFFFF;stroke-width:1.5;stroke-miterlimit:10;}
	.st12{fill:none;stroke:#FFFFFF;stroke-width:1.5;stroke-linecap:round;stroke-linejoin:round;stroke-miterlimit:2;}
</style>
<path class="st4" d="M14.4,30.5c-0.1,0.9-0.2,2.1-0.3,3.3H7c0-9.7,3.8-8.9,3.8-8.9S13.6,24.3,14.4,30.5z"/>
<path class="st4" d="M43,34.3h-7.4c-0.1-1.7-0.4-3.2-0.6-4.4c0.9-6,3.9-5.4,3.9-5.4S43,23.6,43,34.3z"/>
<circle class="st4" cx="38.9" cy="18.8" r="2.7"/>
<circle class="st4" cx="10.8" cy="19.1" r="2.7"/>
<circle class="st4" cx="29.3" cy="16.5" r="3.8"/>
<circle class="st4" cx="19" cy="16.3" r="3.6"/>
<path class="st4" d="M23.6,30c-0.4,1.6-0.6,3.6-0.7,6.1H14c0-0.8,0-1.5,0.1-2.2c0.1-1.3,0.2-2.4,0.3-3.3c1.1-7.9,4.7-7.1,4.7-7.1
	S22.4,22.6,23.6,30z"/>
<path class="st4" d="M35.8,37.3H22.9c0-0.4,0-0.9,0-1.3c0.1-2.5,0.3-4.5,0.7-6.1c1.7-6.9,5.7-6.1,5.7-6.1s4-0.8,5.7,6.1
	c0.3,1.2,0.5,2.6,0.6,4.4C35.7,35.2,35.8,36.2,35.8,37.3z"/>
<g>
	<circle class="st5" cx="25" cy="25" r="25"/>
</g>
</svg>
