<?xml version="1.0" encoding="utf-8"?>
<!-- Generator: Adobe Illustrator 18.0.0, SVG Export Plug-In . SVG Version: 6.00 Build 0)  -->
<!DOCTYPE svg PUBLIC "-//W3C//DTD SVG 1.1//EN" "http://www.w3.org/Graphics/SVG/1.1/DTD/svg11.dtd">
<svg version="1.1" id="Ebene_1" xmlns="http://www.w3.org/2000/svg" xmlns:xlink="http://www.w3.org/1999/xlink" x="0px" y="0px"
	 viewBox="0 0 50 50" style="enable-background:new 0 0 50 50;" xml:space="preserve">
<style type="text/css">
	.st0{fill:none;stroke:#1D1D1D;stroke-width:1.5;stroke-linecap:round;stroke-linejoin:round;stroke-miterlimit:10;}
	.st1{fill:none;stroke:#1C1C1C;stroke-width:1.5;stroke-linecap:round;stroke-linejoin:round;stroke-miterlimit:10;}
	.st2{fill:none;stroke:#212121;stroke-width:1.5;stroke-linecap:round;stroke-linejoin:round;stroke-miterlimit:10;}
	.st3{fill:none;stroke:#212121;stroke-width:1.5;stroke-linejoin:round;stroke-miterlimit:10;}
	.st4{fill:none;stroke:#222222;stroke-width:1.5;stroke-linecap:round;stroke-linejoin:round;stroke-miterlimit:10;}
	.st5{fill:none;}
	.st6{fill:#222222;}
	.st7{fill:none;stroke:#222222;stroke-width:1.5;stroke-miterlimit:10;}
	.st8{fill:none;stroke:#222222;stroke-width:1.5;stroke-linecap:round;stroke-linejoin:round;stroke-miterlimit:2;}
	.st9{fill:none;stroke:#FFFFFF;stroke-width:1.5;stroke-linecap:round;stroke-linejoin:round;stroke-miterlimit:10;}
	.st10{fill:#FFFFFF;}
	.st11{fill:none;stroke:#FFFFFF;stroke-width:1.5;stroke-miterlimit:10;}
	.st12{fill:none;stroke:#FFFFFF;stroke-width:1.5;stroke-linecap:round;stroke-linejoin:round;stroke-miterlimit:2;}
</style>
<path class="st4" d="M10.2,24.9c2.5,0,2.5-1.4,4.9-1.4c2.5,0,2.5,1.4,4.9,1.4c2.5,0,2.5-1.4,4.9-1.4c2.5,0,2.5,1.4,4.9,1.4
	c2.5,0,2.5-1.4,5-1.4c2.5,0,2.5,1.4,5,1.4"/>
<path class="st4" d="M10.3,32.3c0,5.8,6.6,5.3,14.7,5.3c8.1,0,14.7,0.5,14.7-5.3H10.3z"/>
<path class="st4" d="M39.7,20c0-5.8-6.6-10.6-14.7-10.6c-8.1,0-14.7,4.7-14.7,10.6H39.7z"/>
<circle class="st4" cx="17.4" cy="16.3" r="0.3"/>
<circle class="st4" cx="21" cy="13.5" r="0.3"/>
<circle class="st4" cx="25.6" cy="16.3" r="0.3"/>
<circle class="st4" cx="32.7" cy="16.3" r="0.3"/>
<circle class="st4" cx="28.9" cy="13.3" r="0.3"/>
<line class="st4" x1="9.7" y1="28.3" x2="40.3" y2="28.3"/>
</svg>
