<?xml version="1.0" encoding="utf-8"?>
<!-- Generator: Adobe Illustrator 18.0.0, SVG Export Plug-In . SVG Version: 6.00 Build 0)  -->
<!DOCTYPE svg PUBLIC "-//W3C//DTD SVG 1.1//EN" "http://www.w3.org/Graphics/SVG/1.1/DTD/svg11.dtd">
<svg version="1.1" id="Ebene_1" xmlns="http://www.w3.org/2000/svg" xmlns:xlink="http://www.w3.org/1999/xlink" x="0px" y="0px"
	 viewBox="0 0 50 50" style="enable-background:new 0 0 50 50;" xml:space="preserve">
<style type="text/css">
	.st0{fill:none;stroke:#1D1D1D;stroke-width:1.5;stroke-linecap:round;stroke-linejoin:round;stroke-miterlimit:10;}
	.st1{fill:none;stroke:#1C1C1C;stroke-width:1.5;stroke-linecap:round;stroke-linejoin:round;stroke-miterlimit:10;}
	.st2{fill:none;stroke:#212121;stroke-width:1.5;stroke-linecap:round;stroke-linejoin:round;stroke-miterlimit:10;}
	.st3{fill:none;stroke:#212121;stroke-width:1.5;stroke-linejoin:round;stroke-miterlimit:10;}
	.st4{fill:none;stroke:#222222;stroke-width:1.5;stroke-linecap:round;stroke-linejoin:round;stroke-miterlimit:10;}
	.st5{fill:none;}
	.st6{fill:#222222;}
	.st7{fill:none;stroke:#222222;stroke-width:1.5;stroke-miterlimit:10;}
	.st8{fill:none;stroke:#222222;stroke-width:1.5;stroke-linecap:round;stroke-linejoin:round;stroke-miterlimit:2;}
	.st9{fill:none;stroke:#FFFFFF;stroke-width:1.5;stroke-linecap:round;stroke-linejoin:round;stroke-miterlimit:10;}
	.st10{fill:#FFFFFF;}
	.st11{fill:none;stroke:#FFFFFF;stroke-width:1.5;stroke-miterlimit:10;}
	.st12{fill:none;stroke:#FFFFFF;stroke-width:1.5;stroke-linecap:round;stroke-linejoin:round;stroke-miterlimit:2;}
</style>
<path class="st9" d="M32.6,18v-0.5H15.6v0.3c-0.5-0.6-0.8-1.3-0.8-2.1c0-1.9,1.8-3.5,4-3.5c0.1,0,0.2,0,0.3,0c0.6-1.9,2.6-3.3,5-3.3
	c2.5,0,4.6,1.6,5.1,3.6h0.1c2.2,0,3.9,1.5,3.9,3.4C33.3,16.7,33,17.4,32.6,18z"/>
<path class="st9" d="M32.6,17.5v19.1c0,4.9-3.8,4.4-8.5,4.4c-4.7,0-8.5,0.4-8.5-4.4V17.5H32.6z"/>
<line class="st9" x1="20.6" y1="22.8" x2="20.6" y2="35.7"/>
<line class="st9" x1="24.1" y1="22.8" x2="24.1" y2="35.7"/>
<line class="st9" x1="27.7" y1="22.8" x2="27.7" y2="35.7"/>
<path class="st9" d="M32.6,22.5c3.7,0,5.4,3,5.4,6.6c0,3.7-1.8,6.6-5.4,6.6"/>
<g>
	<circle class="st5" cx="25" cy="25" r="25"/>
</g>
</svg>
