<?xml version="1.0" encoding="utf-8"?>
<!-- Generator: Adobe Illustrator 18.0.0, SVG Export Plug-In . SVG Version: 6.00 Build 0)  -->
<!DOCTYPE svg PUBLIC "-//W3C//DTD SVG 1.1//EN" "http://www.w3.org/Graphics/SVG/1.1/DTD/svg11.dtd">
<svg version="1.1" id="Ebene_1" xmlns="http://www.w3.org/2000/svg" xmlns:xlink="http://www.w3.org/1999/xlink" x="0px" y="0px"
	 viewBox="0 0 50 50" style="enable-background:new 0 0 50 50;" xml:space="preserve">
<style type="text/css">
	.st0{fill:none;stroke:#1D1D1D;stroke-width:1.5;stroke-linecap:round;stroke-linejoin:round;stroke-miterlimit:10;}
	.st1{fill:none;stroke:#1C1C1C;stroke-width:1.5;stroke-linecap:round;stroke-linejoin:round;stroke-miterlimit:10;}
	.st2{fill:none;stroke:#212121;stroke-width:1.5;stroke-linecap:round;stroke-linejoin:round;stroke-miterlimit:10;}
	.st3{fill:none;stroke:#212121;stroke-width:1.5;stroke-linejoin:round;stroke-miterlimit:10;}
	.st4{fill:none;stroke:#222222;stroke-width:1.5;stroke-linecap:round;stroke-linejoin:round;stroke-miterlimit:10;}
	.st5{fill:none;}
	.st6{fill:#222222;}
	.st7{fill:none;stroke:#222222;stroke-width:1.5;stroke-miterlimit:10;}
	.st8{fill:none;stroke:#222222;stroke-width:1.5;stroke-linecap:round;stroke-linejoin:round;stroke-miterlimit:2;}
	.st9{fill:none;stroke:#FFFFFF;stroke-width:1.5;stroke-linecap:round;stroke-linejoin:round;stroke-miterlimit:10;}
	.st10{fill:#FFFFFF;}
	.st11{fill:none;stroke:#FFFFFF;stroke-width:1.5;stroke-miterlimit:10;}
	.st12{fill:none;stroke:#FFFFFF;stroke-width:1.5;stroke-linecap:round;stroke-linejoin:round;stroke-miterlimit:2;}
</style>
<polygon class="st11" points="31.4,32.6 31.4,32.6 31.4,32.6 "/>
<path class="st12" d="M18.3,32.6C18.3,32.6,18.3,32.7,18.3,32.6C18.3,32.7,18.3,32.6,18.3,32.6z M18.3,32.7
	C18.4,32.8,18.4,32.8,18.3,32.7C18.4,32.8,18.4,32.8,18.3,32.7z M31.3,32.7C31.3,32.7,31.3,32.6,31.3,32.7
	C31.3,32.6,31.3,32.7,31.3,32.7z M31.3,32.5C31.3,32.5,31.3,32.5,31.3,32.5C31.3,32.5,31.3,32.5,31.3,32.5
	C31.3,32.5,31.3,32.6,31.3,32.5C31.3,32.6,31.3,32.5,31.3,32.5c-0.7,2.4-3.6,3.5-6.5,3.5c-2.9,0-5.8-1.1-6.5-3.5c0,0,0,0,0,0
	c0,0,0,0,0,0c0,0,0,0,0,0c0,0,0,0,0,0c-0.9-3,3.7-6.1,6.2-6.4c0.1,0,0.2,0,0.3,0c0.1,0,0.2,0,0.3,0C27.7,26.4,32.2,29.5,31.3,32.5z"
	/>
<g>
	<path class="st10" d="M34.8,10.3c0.3,0,0.5,0,0.8,0c1.1,0.1,4.9,0.7,4,2.4l0,0c0,0-1.7,3.3-2.5,4.2c-0.9,1-0.9,0.8-0.2,1.9
		c1.1,1.9,1.7,4.1,1.8,6.3c0.2,4.5-1.9,9-5.5,11.7c-2.5,1.9-5.4,2.7-8.2,2.7c-0.1,0-0.1,0-0.2,0c-0.1,0-0.1,0-0.2,0
		c-2.9,0-5.7-0.9-8.2-2.7c-3.6-2.7-5.7-7.2-5.5-11.7c0.1-2.2,0.7-4.4,1.8-6.3c0.7-1.2,0.7-0.9-0.2-1.9c-0.8-0.9-1.5-1.9-2.1-3
		c0,0,0,0,0,0c0,0,0,0,0,0c0,0,0,0,0,0c0,0,0,0,0,0c0,0,0,0,0,0c0,0,0,0,0,0c0,0,0,0,0,0c-0.9-1.8,2.5-2.5,3.6-2.8
		c0.9-0.2,1.8-0.4,2.7-0.4c1.3,0,2.5,0.3,3.5,1.3c0.3,0.3,0.6,0.4,0.9,0.4c0.5,0,1-0.2,1.6-0.3c0.7-0.1,1.4-0.2,2.1-0.2
		c0.7,0,1.4,0.1,2.1,0.2c0.6,0.1,1.1,0.3,1.6,0.3c0.3,0,0.6-0.1,0.9-0.4C30.8,10.7,33.2,10.3,34.8,10.3 M34.8,8.8
		c-1.6,0-4.5,0.3-6.4,2.1c-0.1,0-0.3-0.1-0.4-0.1c-0.3-0.1-0.5-0.1-0.9-0.2c-0.8-0.1-1.5-0.2-2.3-0.2c-0.8,0-1.6,0.1-2.3,0.2
		c-0.3,0.1-0.6,0.1-0.9,0.2c-0.1,0-0.3,0.1-0.4,0.1c-1.2-1.1-2.7-1.7-4.5-1.7c-0.9,0-2,0.2-3.1,0.5l-0.2,0.1
		c-1.8,0.5-3.7,1.1-4.4,2.6c-0.3,0.7-0.3,1.5,0.1,2.3l0,0l0,0l0,0c0.7,1.2,1.4,2.3,2.3,3.3l0.1,0.1l0,0.1c-1.2,2.1-1.9,4.5-2,7
		c-0.2,5.1,2,9.9,6.1,13c2.6,2,5.8,3.1,9.1,3.1l0.2,0l0.1,0c3.3,0,6.5-1.1,9.1-3.1c4-3.1,6.3-7.9,6.1-13c-0.1-2.4-0.8-4.8-2-7l0-0.1
		l0.1-0.1c0.9-1,2.4-4,2.7-4.5l0,0c0.4-0.8,0.4-1.6,0-2.4c-1-1.9-4.5-2.2-5.2-2.2C35.4,8.8,35.1,8.8,34.8,8.8L34.8,8.8z"/>
</g>
<g>
	<path class="st10" d="M26.6,30.7C26.6,30.7,26.6,30.7,26.6,30.7C26.6,30.7,26.6,30.7,26.6,30.7C26.6,30.7,26.6,30.7,26.6,30.7
		L26.6,30.7z M26.6,30.7c-1.5,0-1.5,2.3,0,2.3c0,0,0,0,0,0C28.1,33,28.2,30.8,26.6,30.7C26.7,30.7,26.7,30.7,26.6,30.7
		C26.6,30.7,26.6,30.7,26.6,30.7C26.6,30.7,26.6,30.7,26.6,30.7L26.6,30.7z M26.6,30.7C26.6,30.7,26.6,30.7,26.6,30.7
		C26.6,30.7,26.6,30.7,26.6,30.7L26.6,30.7z M26.6,30.7C26.7,30.7,26.7,30.7,26.6,30.7C26.7,30.7,26.7,30.7,26.6,30.7L26.6,30.7z
		 M26.7,30.7C26.7,30.7,26.7,30.7,26.7,30.7C26.7,30.7,26.7,30.7,26.7,30.7C26.7,30.7,26.7,30.7,26.7,30.7L26.7,30.7z M26.7,30.7
		c0.1,0,0.1,0,0.1,0C26.8,30.7,26.7,30.7,26.7,30.7L26.7,30.7z"/>
</g>
<g>
	<path class="st10" d="M23.1,30.7C23,30.7,23,30.7,23.1,30.7C23,30.7,23,30.7,23.1,30.7C23,30.7,23,30.7,23.1,30.7L23.1,30.7z
		 M23,30.7C23,30.7,23,30.7,23,30.7C23,30.7,23,30.7,23,30.7C23,30.7,23,30.7,23,30.7c-1.6,0.1-1.5,2.3,0,2.3c0,0,0,0,0,0
		C24.6,33,24.5,30.7,23,30.7L23,30.7z M23,30.7C23,30.7,23,30.7,23,30.7C23,30.7,23,30.7,23,30.7L23,30.7z M23,30.7
		C23,30.7,23,30.7,23,30.7C23,30.7,23,30.7,23,30.7L23,30.7z M23,30.7C22.9,30.7,22.9,30.7,23,30.7C22.9,30.7,22.9,30.7,23,30.7
		C23,30.7,23,30.7,23,30.7L23,30.7z M22.9,30.7c-0.1,0-0.1,0-0.1,0C22.8,30.7,22.9,30.7,22.9,30.7L22.9,30.7z"/>
</g>
<path class="st12" d="M21.2,18.1L21.2,18.1L21.2,18.1L21.2,18.1c2.7,0,2.7,4.1,0,4.1C18.5,22.3,18.5,18.1,21.2,18.1z"/>
<g>
	<path class="st10" d="M28.4,18.9c-1.8,0-1.8,2.6,0,2.6c0,0,0,0,0,0C30.1,21.5,30.1,18.9,28.4,18.9C28.4,18.9,28.4,18.9,28.4,18.9
		C28.4,18.9,28.4,18.9,28.4,18.9C28.4,18.9,28.4,18.9,28.4,18.9L28.4,18.9z"/>
</g>
<g>
	<circle class="st5" cx="25" cy="25" r="25"/>
</g>
</svg>
