<?xml version="1.0" encoding="utf-8"?>
<!-- Generator: Adobe Illustrator 18.0.0, SVG Export Plug-In . SVG Version: 6.00 Build 0)  -->
<!DOCTYPE svg PUBLIC "-//W3C//DTD SVG 1.1//EN" "http://www.w3.org/Graphics/SVG/1.1/DTD/svg11.dtd">
<svg version="1.1" id="Ebene_1" xmlns="http://www.w3.org/2000/svg" xmlns:xlink="http://www.w3.org/1999/xlink" x="0px" y="0px"
	 viewBox="0 0 50 23.5" style="enable-background:new 0 0 50 23.5;" xml:space="preserve">
<style type="text/css">
	.st0{fill:#FFFFFF;}
</style>
<g>
	<path class="st0" d="M36.1,23.4H13.8c-1.9,0-2-1.3-2.1-1.9L10.5,7.6c0-0.8,0-2,1.9-2h0.3l0.4-3.5c0.1-1.1,1.1-2,2.2-2h4.9
		c1,0,2.2,0.5,3,1.2l0.9,0.9c0.5,0.5,1.6,1,2.2,1h8.3c1,0,2,0.7,2.3,1.6l0.2,0.8h0.5c0.7,0,1.3,0.2,1.6,0.5c0.4,0.4,0.4,1,0.3,1.5
		l-1.3,13.8C38.2,21.9,38.2,23.4,36.1,23.4z M12.4,6.6c-0.9,0-0.9,0.2-0.9,1l1.2,13.8c0.1,0.7,0.2,1,1.1,1h22.3c1,0,1.1-0.4,1.1-1
		l1.3-13.8c0-0.4,0-0.6-0.1-0.7c-0.1-0.1-0.4-0.2-0.8-0.2h-0.9c0,0,0,0,0,0H13.2c0,0,0,0,0,0H12.4z M13.8,5.6h22.3L35.9,5
		c-0.1-0.4-0.7-0.8-1.3-0.8h-8.3c-0.9,0-2.3-0.6-3-1.2l-0.9-0.9c-0.5-0.5-1.5-1-2.2-1h-4.9c-0.6,0-1.1,0.5-1.2,1.1L13.8,5.6z
		 M25,21.3c-0.2,0-0.3-0.1-0.4-0.2l-3.8-4.9c-0.7-0.9-1.1-2.1-1.1-3.3c0-3,2.3-5.4,5.3-5.4c2.9,0,5.3,2.4,5.3,5.4
		c0,1.2-0.4,2.4-1.1,3.3l-3.8,4.9C25.3,21.2,25.2,21.3,25,21.3z M25,8.5c-2.4,0-4.3,1.9-4.3,4.4c0,0.9,0.3,1.9,0.9,2.7L25,20
		l3.4-4.4c0.6-0.7,0.9-1.8,0.9-2.7C29.3,10.5,27.3,8.5,25,8.5z M25,16.4c-0.3,0-0.5-0.2-0.5-0.5v-2.4h-2.3c-0.3,0-0.5-0.2-0.5-0.5
		s0.2-0.5,0.5-0.5h2.3v-2.4c0-0.3,0.2-0.5,0.5-0.5s0.5,0.2,0.5,0.5v2.4h2.4c0.3,0,0.5,0.2,0.5,0.5s-0.2,0.5-0.5,0.5h-2.4v2.4
		C25.5,16.2,25.3,16.4,25,16.4z"/>
</g>
</svg>
