<?xml version="1.0" encoding="utf-8"?>
<!-- Generator: Adobe Illustrator 18.0.0, SVG Export Plug-In . SVG Version: 6.00 Build 0)  -->
<!DOCTYPE svg PUBLIC "-//W3C//DTD SVG 1.1//EN" "http://www.w3.org/Graphics/SVG/1.1/DTD/svg11.dtd">
<svg version="1.1" id="Ebene_1" xmlns="http://www.w3.org/2000/svg" xmlns:xlink="http://www.w3.org/1999/xlink" x="0px" y="0px"
	 viewBox="0 0 50 23.5" style="enable-background:new 0 0 50 23.5;" xml:space="preserve">
<style type="text/css">
	.st0{fill:#FFFFFF;}
</style>
<g>
	<path class="st0" d="M34.5,23.4c-0.1,0-0.2,0-0.3-0.1l-2.4-1.8c-1,0.4-2.1,0.5-3.2,0.5c-3.4,0-6.4-1.7-7.7-4.4
		c-0.5-0.1-1-0.3-1.5-0.4l-3.1,2.4c-0.2,0.1-0.4,0.1-0.6,0c-0.2-0.1-0.3-0.3-0.2-0.5l0.6-3.9c-1.9-1.6-3-3.8-3-6.2
		c0-4.9,4.7-8.9,10.5-8.9C29.3,0.1,34,4.1,34,9c0,0.1,0,0.3,0,0.4c1.9,1.3,3,3.4,3,5.5c0,1.8-0.9,3.6-2.4,4.9l0.4,3
		c0,0.2-0.1,0.4-0.2,0.5C34.7,23.4,34.6,23.4,34.5,23.4z M31.9,20.4c0.1,0,0.2,0,0.3,0.1l1.7,1.3l-0.3-2.1c0-0.2,0-0.3,0.2-0.5
		c1.4-1.1,2.2-2.7,2.2-4.3c0-1.6-0.8-3.2-2.2-4.3c-0.9,4.2-5.2,7.3-10.3,7.3c-0.4,0-0.9,0-1.3-0.1c1.3,1.9,3.7,3.2,6.4,3.2
		c1.1,0,2.2-0.2,3.1-0.6C31.8,20.4,31.8,20.4,31.9,20.4z M23.6,1.1c-5.2,0-9.5,3.5-9.5,7.9c0,2.2,1,4.2,2.8,5.6
		c0.1,0.1,0.2,0.3,0.2,0.5l-0.4,3l2.3-1.8c0.1-0.1,0.3-0.1,0.5-0.1c0.5,0.2,1.1,0.4,1.6,0.5c0.2,0,0.3,0,0.5,0.1
		c0.7,0.1,1.3,0.2,2,0.2c5.2,0,9.5-3.5,9.5-7.9C33,4.6,28.8,1.1,23.6,1.1z"/>
</g>
</svg>
