<?xml version="1.0" encoding="utf-8"?>
<!-- Generator: Adobe Illustrator 18.0.0, SVG Export Plug-In . SVG Version: 6.00 Build 0)  -->
<!DOCTYPE svg PUBLIC "-//W3C//DTD SVG 1.1//EN" "http://www.w3.org/Graphics/SVG/1.1/DTD/svg11.dtd">
<svg version="1.1" id="Ebene_1" xmlns="http://www.w3.org/2000/svg" xmlns:xlink="http://www.w3.org/1999/xlink" x="0px" y="0px"
	 viewBox="0 0 50 23.5" style="enable-background:new 0 0 50 23.5;" xml:space="preserve">
<style type="text/css">
	.st0{fill:#FFFFFF;}
</style>
<g>
	<g>
		<path class="st0" d="M25,14.5c-0.3,0-0.5-0.2-0.5-0.5V9.9h-4.4c-0.3,0-0.5-0.2-0.5-0.5s0.2-0.5,0.5-0.5h4.4V4.8
			c0-0.3,0.2-0.5,0.5-0.5s0.5,0.2,0.5,0.5v4.1h4.3c0.3,0,0.5,0.2,0.5,0.5s-0.2,0.5-0.5,0.5h-4.3V14C25.5,14.3,25.3,14.5,25,14.5z"/>
	</g>
	<g>
		<path class="st0" d="M25,23.5c-0.1,0-0.3-0.1-0.4-0.2l-7.4-8.6c-1.4-1.7-2.1-3.7-2.1-5.6c0-5,4.4-9.1,9.8-9.1s9.8,4.1,9.8,9.1
			c0,2.1-0.7,4-2.1,5.6l-7.2,8.6C25.3,23.4,25.2,23.5,25,23.5z M24.9,1c-4.9,0-8.8,3.6-8.8,8.1c0,1.7,0.7,3.4,1.9,5l7,8.1l6.8-8.1
			c1.3-1.4,1.9-3.1,1.9-5C33.7,4.6,29.8,1,24.9,1z"/>
	</g>
</g>
</svg>
