<?xml version="1.0" encoding="utf-8"?>
<!-- Generator: Adobe Illustrator 18.0.0, SVG Export Plug-In . SVG Version: 6.00 Build 0)  -->
<!DOCTYPE svg PUBLIC "-//W3C//DTD SVG 1.1//EN" "http://www.w3.org/Graphics/SVG/1.1/DTD/svg11.dtd">
<svg version="1.1" id="Ebene_1" xmlns="http://www.w3.org/2000/svg" xmlns:xlink="http://www.w3.org/1999/xlink" x="0px" y="0px"
	 viewBox="0 0 50 23.5" style="enable-background:new 0 0 50 23.5;" xml:space="preserve">
<style type="text/css">
	.st0{fill:#FFFFFF;}
</style>
<g>
	<g>
		<path class="st0" d="M25,8.8c-2.4,0-4.3-1.9-4.3-4.3s1.9-4.3,4.3-4.3s4.3,1.9,4.3,4.3S27.4,8.8,25,8.8z M25,1.2
			c-1.8,0-3.3,1.5-3.3,3.3s1.5,3.3,3.3,3.3s3.3-1.5,3.3-3.3S26.8,1.2,25,1.2z"/>
	</g>
	<g>
		<path class="st0" d="M30.6,23.3C30.6,23.3,30.6,23.3,30.6,23.3H19.4c-0.3,0-0.5-0.2-0.5-0.5c0-10.6,3.8-12.2,6.1-12.2
			c2.8,0,6.1,2.1,6.1,12.1c0,0,0,0.1,0,0.1C31.1,23.1,30.9,23.3,30.6,23.3z M19.9,22.3h10.2C30,15.4,28.2,11.6,25,11.6
			C21.8,11.6,20,15.4,19.9,22.3z"/>
	</g>
</g>
</svg>
