<?xml version="1.0" encoding="utf-8"?>
<!-- Generator: Adobe Illustrator 18.0.0, SVG Export Plug-In . SVG Version: 6.00 Build 0)  -->
<!DOCTYPE svg PUBLIC "-//W3C//DTD SVG 1.1//EN" "http://www.w3.org/Graphics/SVG/1.1/DTD/svg11.dtd">
<svg version="1.1" id="Ebene_1" xmlns="http://www.w3.org/2000/svg" xmlns:xlink="http://www.w3.org/1999/xlink" x="0px" y="0px"
	 viewBox="0 0 50 23.5" style="enable-background:new 0 0 50 23.5;" xml:space="preserve">
<style type="text/css">
	.st0{fill:#FFFFFF;}
</style>
<g>
	<g>
		<path class="st0" d="M28.1,17.2c-4.7,0-8.6-3.9-8.6-8.6c0-4.7,3.9-8.6,8.6-8.6c4.7,0,8.6,3.9,8.6,8.6
			C36.7,13.3,32.8,17.2,28.1,17.2z M28.1,1c-4.2,0-7.6,3.4-7.6,7.6s3.4,7.6,7.6,7.6c4.2,0,7.6-3.4,7.6-7.6S32.3,1,28.1,1z"/>
	</g>
	<g>
		<path class="st0" d="M15.2,23.4c-0.1,0-0.3,0-0.4-0.1l-1.4-1.4c-0.2-0.2-0.2-0.5,0-0.7l7.9-7.9c0.1-0.1,0.2-0.1,0.4-0.1l0,0
			c0.1,0,0.3,0.1,0.4,0.1l1.4,1.4c0.2,0.2,0.2,0.5,0,0.7l-7.9,7.9C15.4,23.4,15.3,23.4,15.2,23.4z M14.5,21.5l0.7,0.7l7.2-7.2
			l-0.7-0.7L14.5,21.5z"/>
	</g>
</g>
</svg>
